<svg width="375" height="247" fill="none" viewBox="0 0 375 247">
  <rect width="85.618" height="90.565" x="279" fill="#000" rx="6.941"/>
  <rect width="85.329" height="90.276" x="279.145" y=".145" stroke="#fff" stroke-opacity=".5" stroke-width=".289" rx="6.797"/>
  <path fill="url(#paint0_radial_11273:6)" d="M329.408 13.699a35.65 35.65 0 00-9.205 1.21 35.4 35.4 0 00-8.577 3.558 35.67 35.67 0 00-7.367 5.647 35.848 35.848 0 00-5.65 7.37 35.121 35.121 0 00-3.558 8.578 35.638 35.638 0 00-1.21 9.205h4.136c0-2.812.377-5.537 1.073-8.136a31.139 31.139 0 013.151-7.572 31.655 31.655 0 014.992-6.507 31.664 31.664 0 016.507-4.993 31.242 31.242 0 0115.708-4.224V13.7z"/>
  <path fill="url(#paint1_linear_11273:6)" d="M321.273 18.908a31.18 31.18 0 00-7.573 3.151 31.668 31.668 0 00-6.507 4.992 31.655 31.655 0 00-4.992 6.508 31.201 31.201 0 00-3.151 7.572 31.377 31.377 0 000 16.271 31.139 31.139 0 003.151 7.573 31.655 31.655 0 004.992 6.507l2.923-2.923a27.414 27.414 0 01-4.335-5.65 27.214 27.214 0 010-27.284 27.519 27.519 0 014.335-5.651 27.368 27.368 0 015.65-4.334 27.207 27.207 0 0113.642-3.668v-4.137c-2.812 0-5.536.377-8.135 1.073z"/>
  <path fill="url(#paint2_radial_11273:6)" d="M307.037 43.273a23.28 23.28 0 016.001-10.377 23.397 23.397 0 014.795-3.68 23.092 23.092 0 0111.575-3.113v-4.131a27.18 27.18 0 00-13.642 3.668 27.537 27.537 0 00-5.651 4.334 27.441 27.441 0 00-4.334 5.65 27.193 27.193 0 00-2.736 20.704 27.163 27.163 0 002.736 6.58 27.544 27.544 0 004.334 5.651 27.398 27.398 0 005.651 4.335 27.032 27.032 0 006.58 2.735 27.23 27.23 0 007.062.933v-4.133a23.07 23.07 0 01-11.575-3.112 23.26 23.26 0 01-4.795-3.68 23.421 23.421 0 01-3.68-4.795 23.08 23.08 0 01-2.321-17.569z"/>
  <path fill="url(#paint3_linear_11273:6)" d="M345.877 58.776a19.168 19.168 0 01-3.021 3.938 19.027 19.027 0 01-3.939 3.022 18.926 18.926 0 01-14.433 1.906 18.786 18.786 0 01-4.585-1.906 19.186 19.186 0 01-3.939-3.022 19.168 19.168 0 01-3.021-3.938 18.75 18.75 0 01-1.906-4.586 18.926 18.926 0 010-9.847 18.75 18.75 0 011.906-4.586 19.168 19.168 0 013.021-3.938 19.186 19.186 0 013.939-3.022 18.954 18.954 0 019.509-2.557v-4.136a23.07 23.07 0 00-11.575 3.113 23.26 23.26 0 00-4.795 3.68 23.419 23.419 0 00-3.68 4.794 23.08 23.08 0 00-2.321 17.569 23.278 23.278 0 006.001 10.377 23.394 23.394 0 004.795 3.68 23.092 23.092 0 0023.151 0 23.281 23.281 0 004.794-3.68 23.419 23.419 0 003.68-4.795l-3.581-2.066z"/>
  <path fill="url(#paint4_radial_11273:6)" d="M344.298 49.267a14.836 14.836 0 01-2.001 7.442 15.068 15.068 0 01-2.364 3.083 14.956 14.956 0 01-6.67 3.858 14.834 14.834 0 01-11.298-1.492 14.82 14.82 0 01-5.445-5.445 14.684 14.684 0 01-1.492-3.588 14.793 14.793 0 010-7.71 14.94 14.94 0 013.859-6.67 14.807 14.807 0 013.082-2.363 14.675 14.675 0 013.588-1.492 14.792 14.792 0 013.855-.51v-4.14a18.954 18.954 0 00-9.509 2.557 19.155 19.155 0 00-3.939 3.022 19.169 19.169 0 00-4.928 8.523 18.947 18.947 0 000 9.849 19.168 19.168 0 004.928 8.524 19.159 19.159 0 008.524 4.927 18.954 18.954 0 0014.433-1.906 19.186 19.186 0 003.939-3.022 19.168 19.168 0 004.928-8.523c.422-1.572.65-3.22.65-4.925h-4.14z"/>
  <path fill="url(#paint5_radial_11273:6)" d="M347.099 48.996a15.003 15.003 0 00-3.855-6.67 14.807 14.807 0 00-3.082-2.363 14.695 14.695 0 00-3.588-1.492 14.8 14.8 0 00-7.71 0 14.981 14.981 0 00-6.671 3.855 14.82 14.82 0 00-2.363 3.082 14.681 14.681 0 00-1.491 3.588 14.793 14.793 0 000 7.71 14.962 14.962 0 003.854 6.67 14.813 14.813 0 003.083 2.364 14.675 14.675 0 003.588 1.491 14.792 14.792 0 007.71 0 14.956 14.956 0 006.67-3.859 14.819 14.819 0 002.363-3.082 14.686 14.686 0 001.492-3.588 14.792 14.792 0 000-7.706z" opacity=".77"/>
  <path fill="url(#paint6_linear_11273:6)" d="M343.788 45.412a14.962 14.962 0 00-3.855-6.67 14.807 14.807 0 00-3.082-2.364 14.67 14.67 0 00-3.588-1.492 14.834 14.834 0 00-11.298 1.492 15.071 15.071 0 00-3.082 2.363 14.943 14.943 0 00-3.859 6.67 14.793 14.793 0 000 7.71 15.005 15.005 0 003.855 6.67 14.703 14.703 0 003.082 2.364 14.678 14.678 0 003.589 1.491 14.834 14.834 0 0011.297-1.492 14.935 14.935 0 003.083-2.366 14.822 14.822 0 002.363-3.082 14.645 14.645 0 001.491-3.589c.331-1.229.51-2.519.51-3.854a14.658 14.658 0 00-.506-3.851z"/>
  <path fill="#F5F7F6" d="M340.428 46.314a11.361 11.361 0 00-1.145-2.748 11.668 11.668 0 00-1.812-2.363 11.42 11.42 0 00-2.363-1.811 11.354 11.354 0 00-2.747-1.146 11.47 11.47 0 00-2.953-.388c-1.02 0-2.009.137-2.953.389-.974.262-1.895.65-2.747 1.145a11.663 11.663 0 00-2.363 1.811 11.42 11.42 0 00-1.811 2.363 11.364 11.364 0 00-1.146 2.748 11.472 11.472 0 00-.388 2.953c0 1.02.137 2.009.388 2.952.263.975.651 1.895 1.146 2.748.502.864 1.111 1.659 1.811 2.363a11.423 11.423 0 002.363 1.811c.852.495 1.773.883 2.747 1.145.944.252 1.933.389 2.953.389 1.02 0 2.009-.137 2.953-.389.974-.262 1.895-.65 2.747-1.145a11.666 11.666 0 002.363-1.811 11.459 11.459 0 001.812-2.363c.494-.853.883-1.773 1.145-2.748.251-.943.388-1.933.388-2.953 0-1.02-.137-2.009-.388-2.952zM340.401 16.797l1.861-1.062-1.861-1.066v.96h-8.995v.209h8.995v.959zM340.401 19.799h-8.995v.21h8.995v.909l1.861-1.066-1.861-1.065v1.012zM340.401 23.954h-8.995v.206h8.995v.962l1.861-1.065-1.861-1.066v.963zM340.401 28.345h-8.995v.21h8.995v.856l1.861-1.066-1.861-1.061v1.061zM340.401 32.584h-8.995v.21h8.995v.962l1.861-1.065-1.861-1.066v.96zM345.281 31.164l-.754 1.692h-.243l.752-1.632h-.986v-.19h1.231v.13zm.37.779l.092-.909h.934v.214h-.737l-.055.497a.586.586 0 01.304-.079.5.5 0 01.395.165c.098.11.147.258.147.445 0 .188-.051.336-.153.444-.101.108-.242.162-.424.162a.579.579 0 01-.395-.134.536.536 0 01-.173-.37h.219a.37.37 0 00.111.236c.06.052.139.079.238.079a.312.312 0 00.253-.11.462.462 0 00.092-.305.417.417 0 00-.1-.293.336.336 0 00-.264-.111.383.383 0 00-.238.066l-.061.05-.185-.047zm1.312-.558c0-.11.035-.2.104-.27.07-.071.16-.107.269-.107.111 0 .201.036.269.108.07.07.104.163.104.276v.09c0 .11-.035.2-.105.27a.36.36 0 01-.265.103.369.369 0 01-.269-.104.375.375 0 01-.107-.279v-.087zm.173.096c0 .065.018.119.055.161a.188.188 0 00.148.063c.059 0 .107-.02.143-.061a.245.245 0 00.055-.168v-.091a.241.241 0 00-.054-.162.182.182 0 00-.147-.064.182.182 0 00-.146.064.249.249 0 00-.054.167v.091zm.715.929a.36.36 0 01.373-.376c.109 0 .199.035.269.105.07.07.105.163.105.28v.088a.36.36 0 01-.372.375.37.37 0 01-.269-.103.374.374 0 01-.106-.28v-.09zm.172.097c0 .066.019.12.055.163a.188.188 0 00.148.063c.06 0 .108-.02.144-.062a.25.25 0 00.054-.169v-.092a.234.234 0 00-.055-.162.181.181 0 00-.145-.062c-.06 0-.108.02-.146.062a.244.244 0 00-.055.167v.092zm-.632.212l-.131-.083.89-1.424.131.083-.89 1.424z"/>
  <g>
    <path fill="#F5F7F6" d="M345.014 26.94v.196h-.043a.608.608 0 00-.43.16.668.668 0 00-.186.437.494.494 0 01.393-.165.47.47 0 01.379.167.64.64 0 01.143.434.641.641 0 01-.154.45.525.525 0 01-.41.169.519.519 0 01-.424-.2.796.796 0 01-.163-.518v-.09c0-.335.071-.59.214-.768.143-.177.356-.268.639-.273h.042zm-.304.82a.372.372 0 00-.22.072.37.37 0 00-.138.179v.085c0 .15.033.271.101.363a.305.305 0 00.253.137.292.292 0 00.245-.115.476.476 0 00.09-.301.472.472 0 00-.091-.303.288.288 0 00-.24-.116zm1.977.226c0 .27-.046.472-.139.604-.093.132-.237.198-.434.198-.195 0-.339-.064-.432-.193-.094-.13-.142-.322-.145-.578v-.31c0-.267.046-.466.139-.596.092-.13.237-.195.435-.195.196 0 .341.063.433.189.093.125.14.318.143.58v.3zm-.232-.317c0-.196-.027-.339-.082-.428-.055-.09-.143-.135-.262-.135-.118 0-.205.045-.259.134-.054.09-.082.226-.084.412v.37c0 .197.029.343.085.437.058.093.145.14.261.14a.278.278 0 00.254-.133c.056-.088.085-.227.087-.418v-.379zm.508-.378c0-.11.035-.2.104-.27.07-.071.16-.107.269-.107.111 0 .201.036.269.108.07.071.104.163.104.277v.089c0 .11-.035.2-.105.27a.36.36 0 01-.265.104.369.369 0 01-.269-.104.375.375 0 01-.107-.28v-.087zm.173.097c0 .065.018.118.055.161a.188.188 0 00.148.063c.059 0 .107-.02.143-.062a.245.245 0 00.055-.167v-.092a.241.241 0 00-.054-.161.182.182 0 00-.147-.064.182.182 0 00-.146.064.249.249 0 00-.054.166v.092zm.715.928a.36.36 0 01.373-.375c.109 0 .199.035.269.105.07.07.105.163.105.279v.089a.36.36 0 01-.372.375.37.37 0 01-.269-.104.374.374 0 01-.106-.279v-.09zm.172.098c0 .066.019.12.055.162a.188.188 0 00.148.063c.06 0 .108-.02.144-.061a.25.25 0 00.054-.17v-.092a.234.234 0 00-.055-.161.181.181 0 00-.145-.063c-.06 0-.108.021-.146.063a.244.244 0 00-.055.166v.093zm-.632.211l-.131-.082.89-1.424.131.082-.89 1.424z"/>
  </g>
  <g>
    <path fill="#F5F7F6" d="M344.211 23.685l.093-.909h.934v.214h-.737l-.056.497a.592.592 0 01.305-.079c.166 0 .297.055.395.165.098.11.146.258.146.444 0 .188-.05.336-.152.445-.101.107-.243.161-.424.161a.577.577 0 01-.395-.134.541.541 0 01-.174-.37h.219a.375.375 0 00.112.236c.06.053.139.08.238.08a.31.31 0 00.252-.11.457.457 0 00.093-.305.417.417 0 00-.1-.293.336.336 0 00-.264-.111.383.383 0 00-.238.066l-.061.05-.186-.047zm2.476.136c0 .271-.046.473-.139.604-.093.132-.237.198-.434.198-.195 0-.339-.064-.432-.193-.094-.129-.142-.322-.145-.578v-.309c0-.268.046-.467.139-.597.092-.13.237-.195.435-.195.196 0 .341.063.433.189.093.125.14.319.143.58v.301zm-.232-.317c0-.196-.027-.338-.082-.428-.055-.09-.143-.135-.262-.135-.118 0-.205.045-.259.134-.054.09-.082.227-.084.412v.37c0 .197.029.343.085.437.058.093.145.14.261.14a.278.278 0 00.254-.133c.056-.088.085-.227.087-.417v-.38zm.508-.378c0-.109.035-.199.104-.27.07-.07.16-.106.269-.106.111 0 .201.036.269.107.07.071.104.163.104.277v.089c0 .11-.035.2-.105.27a.36.36 0 01-.265.104.369.369 0 01-.269-.104.375.375 0 01-.107-.279v-.088zm.173.097c0 .065.018.119.055.161a.188.188 0 00.148.063c.059 0 .107-.02.143-.061a.245.245 0 00.055-.168v-.092a.241.241 0 00-.054-.161.182.182 0 00-.147-.064.182.182 0 00-.146.064.249.249 0 00-.054.166v.092zm.715.928a.36.36 0 01.373-.375c.109 0 .199.035.269.105.07.07.105.163.105.28v.088a.36.36 0 01-.372.375.37.37 0 01-.269-.103.374.374 0 01-.106-.28v-.09zm.172.098c0 .066.019.12.055.163a.188.188 0 00.148.062c.06 0 .108-.02.144-.061a.25.25 0 00.054-.169v-.093a.234.234 0 00-.055-.161.181.181 0 00-.145-.063c-.06 0-.108.021-.146.063a.244.244 0 00-.055.166v.093zm-.632.212l-.131-.083.89-1.424.131.082-.89 1.424z"/>
  </g>
  <g>
    <path fill="#F5F7F6" d="M344.442 19.16h.174a.38.38 0 00.257-.086.287.287 0 00.094-.227c0-.213-.106-.32-.319-.32-.1 0-.18.029-.24.086a.3.3 0 00-.089.227h-.231c0-.144.052-.264.157-.36a.577.577 0 01.403-.143c.172 0 .307.045.404.136a.492.492 0 01.147.38.459.459 0 01-.287.397c.1.03.178.084.232.157a.436.436 0 01.082.269.496.496 0 01-.16.39.601.601 0 01-.417.143.619.619 0 01-.418-.139.464.464 0 01-.16-.367h.233c0 .096.031.173.094.23a.355.355 0 00.251.087c.112 0 .198-.03.257-.087.059-.059.089-.143.089-.252 0-.106-.033-.187-.098-.244a.425.425 0 00-.281-.088h-.174v-.189zm2.245.247c0 .271-.046.473-.139.604-.093.132-.237.198-.434.198-.195 0-.339-.064-.432-.193-.094-.129-.142-.322-.145-.578v-.309c0-.268.046-.467.139-.597.092-.13.237-.195.435-.195.196 0 .341.063.433.189.093.125.14.319.143.58v.3zm-.232-.317c0-.196-.027-.338-.082-.428-.055-.09-.143-.135-.262-.135-.118 0-.205.045-.259.134-.054.09-.082.227-.084.412v.37c0 .197.029.343.085.437.058.093.145.14.261.14a.279.279 0 00.254-.133c.056-.088.085-.227.087-.418v-.379zm.508-.378c0-.109.035-.2.104-.27.07-.07.16-.106.269-.106.111 0 .201.036.269.107.07.071.104.163.104.277v.089c0 .11-.035.2-.105.27a.359.359 0 01-.265.104.368.368 0 01-.269-.104.375.375 0 01-.107-.28v-.087zm.173.097c0 .065.018.119.055.161a.187.187 0 00.148.063c.059 0 .107-.02.143-.062a.245.245 0 00.055-.167v-.092a.241.241 0 00-.054-.161.183.183 0 00-.147-.064.182.182 0 00-.146.064.249.249 0 00-.054.166v.092zm.715.928a.36.36 0 01.373-.375c.109 0 .199.035.269.105.07.07.105.163.105.28v.088a.36.36 0 01-.372.375.37.37 0 01-.269-.104.374.374 0 01-.106-.279v-.09zm.172.098c0 .066.019.12.055.163a.188.188 0 00.148.062c.06 0 .108-.02.144-.061a.25.25 0 00.054-.17v-.092a.234.234 0 00-.055-.161.181.181 0 00-.145-.063c-.06 0-.108.021-.146.063a.243.243 0 00-.055.166v.093zm-.632.211l-.131-.082.89-1.424.131.082-.89 1.424z"/>
  </g>
  <g>
    <path fill="#F5F7F6" d="M344.866 15.699h-.233v-1.543l-.467.171v-.21l.664-.249h.036V15.7zm.785-.914l.092-.908h.934v.214h-.737l-.055.497a.585.585 0 01.304-.08.5.5 0 01.395.166c.098.11.147.257.147.444 0 .188-.051.336-.153.445-.101.107-.242.161-.424.161a.578.578 0 01-.395-.134.541.541 0 01-.174-.37h.219a.375.375 0 00.112.236c.06.053.139.079.238.079a.309.309 0 00.252-.11.457.457 0 00.093-.304.418.418 0 00-.1-.293.336.336 0 00-.264-.111.383.383 0 00-.238.066l-.061.05-.185-.048zm1.312-.558c0-.11.035-.2.104-.27.07-.071.16-.107.269-.107.111 0 .201.036.269.108.07.071.104.163.104.277v.089c0 .11-.035.2-.105.27a.359.359 0 01-.265.104.368.368 0 01-.269-.104.375.375 0 01-.107-.28v-.087zm.173.097c0 .065.018.119.055.161a.187.187 0 00.148.063c.059 0 .107-.02.142-.062a.24.24 0 00.056-.167v-.092a.241.241 0 00-.054-.161.182.182 0 00-.147-.064.182.182 0 00-.146.064.249.249 0 00-.054.166v.092zm.715.928a.36.36 0 01.373-.375c.109 0 .199.035.269.105.07.07.105.163.105.279v.089a.36.36 0 01-.372.376.37.37 0 01-.269-.105.374.374 0 01-.106-.279v-.09zm.172.098c0 .066.019.12.055.162a.188.188 0 00.148.063c.06 0 .108-.02.144-.061a.25.25 0 00.054-.17v-.092a.239.239 0 00-.055-.161.182.182 0 00-.145-.063c-.06 0-.108.021-.146.063a.243.243 0 00-.055.166v.093zm-.632.211l-.131-.082.89-1.424.131.082-.89 1.424z"/>
  </g>
  <g>
    <path fill="#193566" d="M331.087 46.803c-.962-.765-2.326-.778-3.25-.026-.663.536-.994 1.339-.994 2.377 0 .689.618 1.676.694 1.804.007.006.516.695.637 1.517l.032.203h2.569l.031-.203c.121-.822.631-1.51.644-1.53.07-.108.688-1.096.688-1.784-.006-1.02-.357-1.81-1.051-2.358zm-1.651 1.35c-.433.014-.828.281-.994.683a.243.243 0 01-.319.127.239.239 0 01-.127-.312 1.603 1.603 0 011.421-.975.236.236 0 01.242.236c.013.127-.089.236-.223.242zM330.755 53.756h-2.651a.242.242 0 110-.485h2.651a.242.242 0 110 .485z"/>
    <path fill="#193566" d="M330.156 53.628h-1.51v.631h1.51v-.63zM329.379 45.681a.242.242 0 01-.242-.242v-.675a.242.242 0 11.484 0v.675c0 .14-.108.242-.242.242zM327.461 46.223a.247.247 0 01-.211-.121l-.337-.586a.238.238 0 11.414-.236l.338.586a.24.24 0 01-.09.325c-.032.026-.07.032-.114.032zM326.071 47.657a.29.29 0 01-.121-.032l-.586-.338a.238.238 0 01.236-.414l.586.338c.115.064.153.21.089.325a.228.228 0 01-.204.12zM325.581 49.588h-.676a.242.242 0 110-.485h.676a.242.242 0 110 .485zM325.543 51.844a.248.248 0 01-.211-.121.24.24 0 01.089-.325l.587-.338a.24.24 0 01.325.09.24.24 0 01-.089.324l-.587.338a.237.237 0 01-.114.032zM333.381 51.755a.284.284 0 01-.121-.032l-.586-.338a.24.24 0 01-.09-.325.239.239 0 01.325-.09l.587.338a.24.24 0 01-.115.447zM333.961 49.48h-.676a.242.242 0 010-.485h.676a.242.242 0 110 .485zM332.744 47.561a.247.247 0 01-.211-.12.24.24 0 01.09-.326l.586-.338a.239.239 0 01.236.414l-.587.338c-.031.026-.076.032-.114.032zM331.316 46.172a.238.238 0 01-.21-.357l.338-.586a.239.239 0 01.414.236l-.338.586a.242.242 0 01-.204.121z"/>
  </g>
  <g>
    <rect width="90.945" height="55.176" x="134" y="96" fill="#000" rx="6.941"/>
    <rect width="90.656" height="54.887" x="134.145" y="96.145" stroke="#fff" stroke-opacity=".5" stroke-width=".289" rx="6.797"/>
    <g>
      <path fill="#406EB2" d="M147.098 108.938h-1.378v26.344h1.378v-26.344zM150.15 108.938h-1.378v26.344h1.378v-26.344zM156.249 108.938h-1.377v26.344h1.377v-26.344zM159.297 108.938h-1.377v26.344h1.377v-26.344zM165.397 108.938h-1.377v26.344h1.377v-26.344zM168.449 108.938h-1.378v26.344h1.378v-26.344zM174.549 108.938h-1.378v26.344h1.378v-26.344zM177.597 108.938h-1.378v26.344h1.378v-26.344zM183.697 108.938h-1.378v26.344h1.378v-26.344zM186.744 108.938h-1.377v26.344h1.377v-26.344zM192.844 108.938h-1.377v26.344h1.377v-26.344zM195.896 108.938h-1.377v26.344h1.377v-26.344zM201.996 108.938h-1.378v26.344h1.378v-26.344zM205.044 108.938h-1.378v26.344h1.378v-26.344zM211.144 108.938h-1.378v26.344h1.378v-26.344zM214.196 108.938h-1.378v26.344h1.378v-26.344z"/>
      <g>
        <path fill="url(#paint7_linear_11273:6)" d="M147.098 118.866h-1.378v16.419h1.378v-16.419z"/>
        <path fill="url(#paint8_linear_11273:6)" d="M150.15 125.514h-1.378v9.768h1.378v-9.768z"/>
        <path fill="url(#paint9_linear_11273:6)" d="M156.249 123.71h-1.377v11.572h1.377V123.71z"/>
        <path fill="url(#paint10_linear_11273:6)" d="M159.297 120.555h-1.377v14.727h1.377v-14.727z"/>
        <path fill="url(#paint11_linear_11273:6)" d="M165.397 122.135h-1.377v13.15h1.377v-13.15z"/>
        <path fill="url(#paint12_linear_11273:6)" d="M168.449 125.814h-1.377v9.468h1.377v-9.468z"/>
        <path fill="url(#paint13_linear_11273:6)" d="M174.549 124.84h-1.378v10.445h1.378V124.84z"/>
        <path fill="url(#paint14_linear_11273:6)" d="M177.597 121.381h-1.378v13.901h1.378v-13.901z"/>
        <path fill="url(#paint15_linear_11273:6)" d="M183.697 117.74h-1.378v17.546h1.378V117.74z"/>
        <path fill="url(#paint16_linear_11273:6)" d="M186.745 124.311h-1.378v10.971h1.378v-10.971z"/>
        <path fill="url(#paint17_linear_11273:6)" d="M192.844 119.09h-1.377v16.192h1.377V119.09z"/>
        <path fill="url(#paint18_linear_11273:6)" d="M195.896 127.694h-1.377v7.588h1.377v-7.588z"/>
        <path fill="url(#paint19_linear_11273:6)" d="M201.996 123.6h-1.377v11.686h1.377V123.6z"/>
        <path fill="url(#paint20_linear_11273:6)" d="M205.044 121.381h-1.377v13.901h1.377v-13.901z"/>
        <path fill="url(#paint21_linear_11273:6)" d="M211.144 118.413h-1.378v16.869h1.378v-16.869z"/>
        <path fill="url(#paint22_linear_11273:6)" d="M214.196 122.698h-1.378v12.588h1.378v-12.588z"/>
      </g>
      <path fill="#fff" d="M215.809 135.453h-72.676v-26.507h.277v26.229h72.399v.278z"/>
      <g>
        <path fill="#F5F7F6" d="M145.498 137.973V136.8h.331c.102 0 .192.022.271.068a.46.46 0 01.181.192.616.616 0 01.065.287v.075a.624.624 0 01-.064.291.458.458 0 01-.183.192.57.57 0 01-.277.068h-.324zm.154-1.046v.92h.163a.35.35 0 00.278-.112c.067-.074.1-.179.1-.316v-.069a.463.463 0 00-.094-.31.334.334 0 00-.266-.113h-.181zm1.559.74h-.492l-.11.306h-.16l.448-1.173h.136l.449 1.173h-.159l-.112-.306zm-.445-.127h.399l-.2-.549-.199.549zm1.58-.613h-.378v1.046h-.154v-1.046h-.376v-.127h.908v.127zm.757.74h-.492l-.11.306h-.16l.449-1.173h.135l.449 1.173h-.159l-.112-.306zm-.445-.127h.399l-.2-.549-.199.549zm1.98-.067c0 .174-.03.304-.089.389-.06.085-.153.127-.28.127-.125 0-.218-.041-.278-.124-.06-.083-.091-.207-.093-.372v-.199c0-.173.029-.301.089-.385.06-.083.153-.125.28-.125.127 0 .22.04.279.121.06.081.091.206.092.374v.194zm-.149-.204a.553.553 0 00-.053-.276c-.036-.058-.092-.087-.169-.087-.076 0-.131.029-.166.086a.535.535 0 00-.054.266v.238c0 .127.018.221.054.281.038.06.093.091.168.091a.18.18 0 00.164-.086.537.537 0 00.056-.269v-.244zm.83.704h-.15v-.993l-.3.11v-.135l.427-.161h.023v1.179z"/>
      </g>
      <g>
        <path fill="#F5F7F6" d="M154.291 137.973V136.8h.331c.102 0 .192.022.271.068a.46.46 0 01.181.192.616.616 0 01.065.287v.075a.624.624 0 01-.064.291.458.458 0 01-.183.192.57.57 0 01-.277.068h-.324zm.154-1.046v.92h.163a.35.35 0 00.278-.112c.067-.074.1-.179.1-.316v-.069a.463.463 0 00-.094-.31.334.334 0 00-.266-.113h-.181zm1.559.74h-.492l-.11.306h-.16l.448-1.173h.136l.449 1.173h-.159l-.112-.306zm-.445-.127h.399l-.2-.549-.199.549zm1.579-.613h-.377v1.046h-.154v-1.046h-.376v-.127h.907v.127zm.758.74h-.492l-.11.306h-.16l.448-1.173h.136l.449 1.173h-.159l-.112-.306zm-.445-.127h.399l-.2-.549-.199.549zm1.98-.067c0 .174-.03.304-.089.389-.06.085-.153.127-.28.127-.125 0-.218-.041-.278-.124-.06-.083-.091-.207-.093-.372v-.199c0-.173.029-.301.089-.385.06-.083.153-.125.28-.125.127 0 .22.04.279.121.06.081.09.206.092.374v.194zm-.149-.204a.553.553 0 00-.053-.276c-.036-.058-.092-.087-.169-.087-.076 0-.131.029-.166.086a.535.535 0 00-.054.266v.238c0 .127.018.221.054.281.037.06.093.091.168.091a.18.18 0 00.164-.086.537.537 0 00.056-.269v-.244zm1.109.704h-.769v-.107l.406-.451a.979.979 0 00.124-.166.281.281 0 00.035-.133.21.21 0 00-.056-.151.194.194 0 00-.148-.059.228.228 0 00-.173.064c-.041.042-.061.1-.061.176h-.149c0-.108.034-.196.103-.262.07-.067.164-.1.28-.1a.37.37 0 01.259.086.293.293 0 01.095.228c0 .115-.074.253-.221.413l-.314.34h.589v.122z"/>
      </g>
      <g>
        <path fill="#F5F7F6" d="M163.131 137.973V136.8h.332c.102 0 .192.022.27.068a.456.456 0 01.182.192.629.629 0 01.065.287v.075a.637.637 0 01-.064.291.458.458 0 01-.183.192.574.574 0 01-.277.068h-.325zm.155-1.046v.92h.163a.35.35 0 00.278-.112c.067-.074.1-.179.1-.316v-.069a.468.468 0 00-.094-.31.334.334 0 00-.266-.113h-.181zm1.559.74h-.492l-.11.306h-.16l.448-1.173h.136l.448 1.173h-.158l-.112-.306zm-.445-.127h.399l-.2-.549-.199.549zm1.579-.613h-.377v1.046h-.154v-1.046h-.376v-.127h.907v.127zm.758.74h-.492l-.11.306h-.16l.448-1.173h.136l.449 1.173h-.159l-.112-.306zm-.445-.127h.399l-.2-.549-.199.549zm1.98-.067c0 .174-.03.304-.09.389-.059.085-.152.127-.279.127-.125 0-.218-.041-.278-.124-.06-.083-.091-.207-.094-.372v-.199c0-.173.03-.301.09-.385.059-.083.153-.125.28-.125.126 0 .219.04.279.121.06.081.09.206.092.374v.194zm-.149-.204a.553.553 0 00-.053-.276c-.036-.058-.092-.087-.169-.087-.076 0-.132.029-.167.086a.558.558 0 00-.054.266v.238c0 .127.019.221.055.281.037.06.093.091.168.091a.179.179 0 00.163-.086.536.536 0 00.057-.269v-.244zm.557.045h.112a.248.248 0 00.166-.056.185.185 0 00.06-.145c0-.138-.068-.207-.205-.207a.215.215 0 00-.155.056.192.192 0 00-.057.146h-.149a.3.3 0 01.101-.232.376.376 0 01.26-.092c.11 0 .197.029.26.088.063.058.094.14.094.244 0 .051-.016.1-.05.148a.29.29 0 01-.134.107.288.288 0 01.149.102.282.282 0 01.053.173.32.32 0 01-.103.251.39.39 0 01-.269.092.402.402 0 01-.269-.089.3.3 0 01-.103-.236h.15c0 .061.02.111.06.148a.233.233 0 00.162.056c.072 0 .128-.019.166-.057.038-.037.057-.091.057-.162a.198.198 0 00-.063-.157.276.276 0 00-.181-.056h-.112v-.122z"/>
      </g>
      <g>
        <path fill="#F5F7F6" d="M172.408 137.973V136.8h.331c.102 0 .192.022.271.068a.46.46 0 01.181.192.616.616 0 01.065.287v.075a.624.624 0 01-.064.291.458.458 0 01-.183.192.57.57 0 01-.277.068h-.324zm.154-1.046v.92h.163a.35.35 0 00.278-.112c.067-.074.1-.179.1-.316v-.069a.463.463 0 00-.094-.31.334.334 0 00-.266-.113h-.181zm1.559.74h-.492l-.11.306h-.16l.448-1.173h.136l.449 1.173h-.159l-.112-.306zm-.445-.127h.399l-.2-.549-.199.549zm1.579-.613h-.377v1.046h-.154v-1.046h-.376v-.127h.907v.127zm.758.74h-.492l-.11.306h-.16l.448-1.173h.136l.449 1.173h-.159l-.112-.306zm-.445-.127h.399l-.2-.549-.199.549zm1.98-.067c0 .174-.03.304-.089.389-.06.085-.153.127-.28.127-.125 0-.218-.041-.278-.124-.06-.083-.091-.207-.094-.372v-.199c0-.173.03-.301.09-.385.06-.083.153-.125.28-.125.127 0 .22.04.279.121.06.081.09.206.092.374v.194zm-.149-.204a.553.553 0 00-.053-.276c-.036-.058-.092-.087-.169-.087-.076 0-.132.029-.166.086a.535.535 0 00-.054.266v.238c0 .127.018.221.054.281.037.06.093.091.168.091a.18.18 0 00.164-.086.537.537 0 00.056-.269v-.244zm.969.31h.163v.122h-.163v.272h-.149v-.272h-.535v-.088l.526-.813h.158v.779zm-.515 0h.366v-.575l-.018.032-.348.543z"/>
      </g>
      <g>
        <path fill="#F5F7F6" d="M181.571 137.973V136.8h.331c.102 0 .193.022.271.068a.454.454 0 01.181.192.63.63 0 01.066.287v.075a.624.624 0 01-.065.291.447.447 0 01-.183.192.57.57 0 01-.276.068h-.325zm.155-1.046v.92h.163a.352.352 0 00.278-.112.459.459 0 00.099-.316v-.069a.463.463 0 00-.094-.31.332.332 0 00-.266-.113h-.18zm1.558.74h-.491l-.111.306h-.159l.448-1.173h.135l.449 1.173h-.159l-.112-.306zm-.445-.127h.399l-.2-.549-.199.549zm1.58-.613h-.377v1.046h-.154v-1.046h-.377v-.127h.908v.127zm.757.74h-.491l-.111.306h-.159l.448-1.173h.135l.449 1.173h-.159l-.112-.306zm-.444-.127h.398l-.199-.549-.199.549zm1.979-.067c0 .174-.029.304-.089.389-.06.085-.153.127-.28.127-.125 0-.217-.041-.278-.124-.06-.083-.091-.207-.093-.372v-.199c0-.173.03-.301.089-.385.06-.083.153-.125.281-.125.126 0 .219.04.279.121.059.081.09.206.091.374v.194zm-.149-.204a.542.542 0 00-.053-.276c-.035-.058-.091-.087-.168-.087-.076 0-.132.029-.167.086a.535.535 0 00-.054.266v.238c0 .127.018.221.055.281.037.06.093.091.167.091.074 0 .129-.029.164-.086a.526.526 0 00.056-.269v-.244zm.409.116l.06-.585h.601v.138h-.475l-.035.32a.373.373 0 01.195-.051c.107 0 .192.035.255.106a.414.414 0 01.094.286.399.399 0 01-.098.286.354.354 0 01-.273.104.369.369 0 01-.254-.086.345.345 0 01-.112-.238h.141a.238.238 0 00.072.152c.039.034.09.051.153.051a.203.203 0 00.163-.071.301.301 0 00.059-.196.27.27 0 00-.064-.189.216.216 0 00-.17-.071.248.248 0 00-.153.042l-.04.032-.119-.03z"/>
      </g>
      <g>
        <path fill="#F5F7F6" d="M190.653 137.973V136.8h.331c.102 0 .193.022.271.068a.454.454 0 01.181.192.63.63 0 01.066.287v.075a.624.624 0 01-.065.291.447.447 0 01-.183.192.57.57 0 01-.276.068h-.325zm.155-1.046v.92h.163a.352.352 0 00.278-.112.459.459 0 00.099-.316v-.069a.463.463 0 00-.094-.31.332.332 0 00-.266-.113h-.18zm1.558.74h-.491l-.111.306h-.159l.448-1.173h.135l.449 1.173h-.159l-.112-.306zm-.445-.127h.399l-.2-.549-.199.549zm1.58-.613h-.377v1.046h-.154v-1.046h-.376v-.127h.907v.127zm.757.74h-.491l-.111.306h-.159l.448-1.173h.135l.449 1.173h-.159l-.112-.306zm-.444-.127h.398l-.199-.549-.199.549zm1.98-.067c0 .174-.03.304-.09.389-.06.085-.153.127-.28.127-.125 0-.217-.041-.278-.124-.06-.083-.091-.207-.093-.372v-.199c0-.173.03-.301.089-.385.06-.083.154-.125.281-.125.126 0 .219.04.279.121.059.081.09.206.092.374v.194zm-.15-.204a.542.542 0 00-.053-.276c-.035-.058-.091-.087-.168-.087-.076 0-.132.029-.167.086a.535.535 0 00-.054.266v.238c0 .127.018.221.055.281.037.06.093.091.167.091.074 0 .129-.029.164-.086a.526.526 0 00.056-.269v-.244zm.926-.47v.127h-.028a.39.39 0 00-.277.103.422.422 0 00-.119.281.316.316 0 01.253-.106c.102 0 .183.036.244.108a.414.414 0 01.092.278.413.413 0 01-.099.29.339.339 0 01-.265.109.335.335 0 01-.273-.129.51.51 0 01-.105-.333v-.058c0-.215.046-.38.138-.494.093-.115.23-.173.412-.176h.027zm-.196.529a.235.235 0 00-.141.046.24.24 0 00-.09.115v.055a.38.38 0 00.066.233.194.194 0 00.162.089.19.19 0 00.158-.074.305.305 0 00.058-.194.299.299 0 00-.059-.195.184.184 0 00-.154-.075z"/>
      </g>
      <g>
        <path fill="#F5F7F6" d="M199.687 137.973V136.8h.332c.102 0 .192.022.27.068a.456.456 0 01.182.192.629.629 0 01.065.287v.075a.624.624 0 01-.064.291.458.458 0 01-.183.192.57.57 0 01-.277.068h-.325zm.155-1.046v.92h.163a.35.35 0 00.278-.112c.067-.074.1-.179.1-.316v-.069a.468.468 0 00-.094-.31.334.334 0 00-.266-.113h-.181zm1.559.74h-.492l-.11.306h-.16l.448-1.173h.136l.448 1.173h-.158l-.112-.306zm-.445-.127h.399l-.2-.549-.199.549zm1.579-.613h-.377v1.046h-.154v-1.046h-.376v-.127h.907v.127zm.758.74h-.492l-.11.306h-.16l.448-1.173h.136l.449 1.173h-.159l-.112-.306zm-.445-.127h.399l-.2-.549-.199.549zm1.98-.067c0 .174-.03.304-.089.389-.06.085-.153.127-.28.127-.125 0-.218-.041-.278-.124-.06-.083-.091-.207-.094-.372v-.199c0-.173.03-.301.09-.385.059-.083.153-.125.28-.125.127 0 .219.04.279.121.06.081.09.206.092.374v.194zm-.149-.204a.553.553 0 00-.053-.276c-.036-.058-.092-.087-.169-.087-.076 0-.132.029-.167.086a.558.558 0 00-.054.266v.238c0 .127.019.221.055.281.037.06.093.091.168.091a.179.179 0 00.163-.086.536.536 0 00.057-.269v-.244zm1.097-.385l-.485 1.089h-.157l.484-1.051h-.635v-.122h.793v.084z"/>
      </g>
      <g>
        <path fill="#F5F7F6" d="M208.577 137.973V136.8h.331c.102 0 .192.022.271.068a.454.454 0 01.181.192.616.616 0 01.065.287v.075a.624.624 0 01-.064.291.458.458 0 01-.183.192.57.57 0 01-.277.068h-.324zm.154-1.046v.92h.163a.35.35 0 00.278-.112c.067-.074.1-.179.1-.316v-.069a.463.463 0 00-.094-.31.332.332 0 00-.266-.113h-.181zm1.559.74h-.492l-.11.306h-.16l.448-1.173h.136l.449 1.173h-.159l-.112-.306zm-.445-.127h.399l-.2-.549-.199.549zm1.58-.613h-.378v1.046h-.153v-1.046h-.377v-.127h.908v.127zm.757.74h-.491l-.111.306h-.159l.448-1.173h.135l.449 1.173h-.159l-.112-.306zm-.445-.127h.399l-.2-.549-.199.549zm1.98-.067c0 .174-.03.304-.089.389-.06.085-.153.127-.28.127-.125 0-.218-.041-.278-.124-.06-.083-.091-.207-.093-.372v-.199c0-.173.029-.301.089-.385.06-.083.153-.125.281-.125.126 0 .219.04.278.121.06.081.091.206.092.374v.194zm-.149-.204a.553.553 0 00-.053-.276c-.035-.058-.092-.087-.168-.087-.077 0-.132.029-.167.086a.535.535 0 00-.054.266v.238c0 .127.018.221.055.281.037.06.092.091.167.091a.18.18 0 00.164-.086.526.526 0 00.056-.269v-.244zm1.052-.163a.269.269 0 01-.047.156.314.314 0 01-.125.108c.061.026.11.064.145.115.036.05.054.108.054.171a.305.305 0 01-.103.243.393.393 0 01-.27.09.394.394 0 01-.271-.09.31.31 0 01-.102-.243c0-.063.017-.12.052-.171a.32.32 0 01.144-.116.323.323 0 01-.124-.107.28.28 0 01-.045-.156c0-.099.032-.177.095-.235a.358.358 0 01.251-.087c.103 0 .186.029.25.087a.3.3 0 01.096.235zm-.122.547a.215.215 0 00-.063-.16.216.216 0 00-.163-.062.219.219 0 00-.162.061.221.221 0 00-.06.161c0 .067.02.119.059.157.04.039.095.058.165.058s.125-.019.164-.058a.207.207 0 00.06-.157zm-.224-.747a.194.194 0 00-.143.055.199.199 0 00-.054.147c0 .06.018.108.054.146a.192.192 0 00.143.054c.06 0 .107-.018.143-.054a.203.203 0 00.054-.146.198.198 0 00-.056-.145.188.188 0 00-.141-.057z"/>
      </g>
    </g>
  </g>
  <g>
    <rect width="90.945" height="55.176" x="193" y="36" fill="#000" rx="6.941"/>
    <rect width="90.656" height="54.887" x="193.145" y="36.145" stroke="#fff" stroke-opacity=".5" stroke-width=".289" rx="6.797"/>
    <g>
      <path fill="url(#paint23_linear_11273:6)" d="M272.96 59.513v20.084h-68.757V54.558c3.124 0 3.124 4.951 6.248 4.951 3.128 0 3.128-10.255 6.252-10.255 3.124 0 3.124 17.154 6.252 17.154 3.124 0 3.124-11.85 6.248-11.85s3.124 7.957 6.248 7.957c3.128 0 3.128-3.36 6.252-3.36 3.124 0 3.124 4.776 6.252 4.776 3.124 0 3.124-4.863 6.252-4.863 3.125 0 3.124 11.229 6.249 11.229 3.128 0 3.128-20.427 6.252-20.427 3.124.004 3.124 9.643 6.252 9.643z"/>
      <path fill="#fff" d="M260.456 70.476c-1.698 0-2.474-2.79-3.296-5.742-.749-2.698-1.526-5.484-2.953-5.484-1.468 0-2.199 1.142-2.979 2.352-.795 1.237-1.614 2.511-3.273 2.511s-2.481-1.255-3.272-2.47c-.776-1.187-1.511-2.305-2.976-2.305-1.484 0-2.218.787-2.995 1.625-.795.852-1.617 1.735-3.257 1.735-1.682 0-2.5-2.082-3.288-4.09-.745-1.903-1.518-3.867-2.96-3.867-1.427 0-2.203 2.945-2.953 5.792-.822 3.112-1.598 6.054-3.295 6.054-1.713 0-2.485-4.24-3.299-8.726-.72-3.95-1.538-8.428-2.95-8.428-1.43 0-2.207 2.542-2.956 5.004-.822 2.701-1.602 5.255-3.296 5.255-1.659 0-2.481-1.302-3.272-2.557-.776-1.23-1.511-2.394-2.976-2.394a.174.174 0 01-.175-.175c0-.099.08-.175.175-.175 1.659 0 2.481 1.301 3.273 2.557.776 1.23 1.51 2.394 2.975 2.394 1.431 0 2.207-2.546 2.957-5.004.822-2.702 1.602-5.252 3.295-5.252 1.709 0 2.481 4.236 3.3 8.722.719 3.954 1.537 8.432 2.952 8.432 1.427 0 2.204-2.945 2.953-5.791.822-3.113 1.599-6.054 3.296-6.054 1.682 0 2.5 2.081 3.287 4.09.746 1.903 1.519 3.867 2.961 3.867 1.488 0 2.218-.788 2.998-1.625.796-.853 1.614-1.735 3.254-1.735 1.659 0 2.477 1.255 3.272 2.465.777 1.188 1.511 2.306 2.98 2.306 1.465 0 2.199-1.141 2.976-2.348.795-1.236 1.617-2.511 3.276-2.511 1.697 0 2.473 2.79 3.295 5.742.75 2.698 1.526 5.487 2.953 5.487 1.412 0 2.23-5.346 2.953-10.06.959-6.26 1.705-10.362 3.303-10.362 1.69 0 2.504 2.51 3.292 4.939.749 2.31 1.522 4.695 2.956 4.695.099 0 .175.08.175.175 0 .1-.08.175-.175.175-1.693 0-2.507-2.511-3.295-4.943-.75-2.31-1.522-4.695-2.957-4.695-1.412 0-2.23 5.346-2.953 10.06-.962 6.257-1.712 10.359-3.306 10.359z"/>
      <path fill="#018DCE" d="M218.069 49.212a1.416 1.416 0 11-2.831 0 1.416 1.416 0 012.831 0zM211.524 59.338a1.416 1.416 0 11-2.831 0 1.416 1.416 0 012.831 0zM224.249 66.316a1.416 1.416 0 11-2.831 0 1.416 1.416 0 012.831 0zM230.512 54.661a1.415 1.415 0 11-2.83 0 1.415 1.415 0 012.83 0zM237.015 62.378a1.415 1.415 0 11-2.83.001 1.415 1.415 0 012.83-.001zM243.123 59.395a1.416 1.416 0 11-2.831 0 1.416 1.416 0 012.831 0zM249.139 63.778a1.416 1.416 0 11-2.831 0 1.416 1.416 0 012.831 0zM255.737 59.018a1.415 1.415 0 11-2.83 0 1.415 1.415 0 012.83 0zM261.711 70.148a1.415 1.415 0 11-2.83.002 1.415 1.415 0 012.83-.002zM268.268 50.007a1.416 1.416 0 11-2.831 0 1.416 1.416 0 012.831 0z"/>
    </g>
  </g>
  <g>
    <path fill="url(#paint24_linear_11273:6)" d="M187.641 193.45a23.996 23.996 0 013.734-.49V187a29.499 29.499 0 00-5.278.694l1.544 5.756z"/>
    <path fill="url(#paint25_linear_11273:6)" d="M176.739 199.027a24.515 24.515 0 012.992-2.298l-2.98-5.169a30.174 30.174 0 00-4.225 3.243l4.213 4.224z"/>
    <path fill="url(#paint26_linear_11273:6)" d="M181.824 195.521a22.138 22.138 0 013.483-1.436l-1.544-5.769a29.591 29.591 0 00-4.918 2.047l2.979 5.158z"/>
    <path fill="url(#paint27_linear_11273:6)" d="M172.73 203.73a23.182 23.182 0 012.297-2.992l-4.212-4.212a30.107 30.107 0 00-3.243 4.224l5.158 2.98z"/>
    <path fill="url(#paint28_linear_11273:6)" d="M168.96 215.387c.06-1.281.227-2.525.49-3.734l-5.756-1.544a30.63 30.63 0 00-.694 5.278h5.96z"/>
    <path fill="url(#paint29_linear_11273:6)" d="M170.073 209.307a24.676 24.676 0 011.436-3.482l-5.158-2.98a29.591 29.591 0 00-2.047 4.918l5.769 1.544z"/>
    <path fill="url(#paint30_linear_11273:6)" d="M218.828 202.845l-5.158 2.98a22.223 22.223 0 011.436 3.482l5.768-1.544a30.195 30.195 0 00-2.046-4.918z"/>
    <path fill="url(#paint31_linear_11273:6)" d="M210.151 200.738a24.491 24.491 0 012.298 2.992l5.17-2.98a30.183 30.183 0 00-3.243-4.224l-4.225 4.212z"/>
    <path fill="#406EB2" d="M199.872 194.085c1.208.395 2.369.873 3.482 1.436l2.98-5.158a29.602 29.602 0 00-4.919-2.047l-1.543 5.769zM205.448 196.729a23.21 23.21 0 012.992 2.298l4.212-4.212a30.107 30.107 0 00-4.224-3.243l-2.98 5.157zM193.804 192.96c1.28.06 2.525.227 3.733.49l1.544-5.756a30.619 30.619 0 00-5.277-.694v5.96z" opacity=".43"/>
    <path fill="url(#paint32_linear_11273:6)" d="M169.45 221.538a24.027 24.027 0 01-.49-3.734H163a29.51 29.51 0 00.694 5.278l5.756-1.544z"/>
    <path fill="url(#paint33_linear_11273:6)" d="M171.521 227.354a22.138 22.138 0 01-1.436-3.483l-5.768 1.544a29.548 29.548 0 002.046 4.919l5.158-2.98z"/>
    <path fill="url(#paint34_linear_11273:6)" d="M208.44 234.151a24.415 24.415 0 01-2.992 2.298l2.98 5.17a30.107 30.107 0 004.224-3.243l-4.212-4.225z"/>
    <path fill="url(#paint35_linear_11273:6)" d="M215.106 223.883a24.808 24.808 0 01-1.436 3.483l5.158 2.98a29.633 29.633 0 002.046-4.919l-5.768-1.544z"/>
    <path fill="url(#paint36_linear_11273:6)" d="M203.354 237.658a22.262 22.262 0 01-3.482 1.436l1.543 5.768a29.598 29.598 0 004.919-2.046l-2.98-5.158z"/>
    <path fill="url(#paint37_linear_11273:6)" d="M215.728 211.641c.263 1.208.419 2.465.491 3.734h5.96a29.487 29.487 0 00-.695-5.278l-5.756 1.544z"/>
    <path fill="url(#paint38_linear_11273:6)" d="M216.219 217.804a22.496 22.496 0 01-.491 3.734l5.756 1.544c.383-1.712.611-3.471.695-5.278h-5.96z"/>
    <path fill="url(#paint39_linear_11273:6)" d="M212.449 229.46a23.032 23.032 0 01-2.298 2.992l4.213 4.213a30.174 30.174 0 003.243-4.225l-5.158-2.98z"/>
    <path fill="url(#paint40_linear_11273:6)" d="M179.731 236.449a23.032 23.032 0 01-2.992-2.298l-4.213 4.213a30.174 30.174 0 004.225 3.243l2.98-5.158z"/>
    <path fill="url(#paint41_linear_11273:6)" d="M175.027 232.44a24.584 24.584 0 01-2.297-2.992l-5.17 2.98a30.107 30.107 0 003.243 4.224l4.224-4.212z"/>
    <path fill="url(#paint42_linear_11273:6)" d="M191.375 240.219a22.363 22.363 0 01-3.734-.491l-1.544 5.757a30.63 30.63 0 005.278.694v-5.96z"/>
    <path fill="url(#paint43_linear_11273:6)" d="M185.307 239.106a24.808 24.808 0 01-3.483-1.436l-2.979 5.158a29.673 29.673 0 004.918 2.046l1.544-5.768z"/>
    <path fill="url(#paint44_linear_11273:6)" d="M197.537 239.728a23.88 23.88 0 01-3.733.491v5.96a29.488 29.488 0 005.277-.694l-1.544-5.757z"/>
    <g>
      <path fill="url(#paint45_linear_11273:6)" d="M266.314 193.45a24.012 24.012 0 013.734-.49V187a29.499 29.499 0 00-5.278.694l1.544 5.756z"/>
      <path fill="url(#paint46_linear_11273:6)" d="M255.399 199.027a24.592 24.592 0 012.992-2.298l-2.98-5.169a30.107 30.107 0 00-4.224 3.243l4.212 4.224z"/>
      <path fill="url(#paint47_linear_11273:6)" d="M260.485 195.521a22.142 22.142 0 013.483-1.437l-1.544-5.768a29.591 29.591 0 00-4.918 2.047l2.979 5.158z"/>
      <path fill="url(#paint48_linear_11273:6)" d="M251.402 203.73a23.1 23.1 0 012.298-2.992l-4.213-4.212a30.26 30.26 0 00-3.243 4.224l5.158 2.98z"/>
      <path fill="url(#paint49_linear_11273:6)" d="M247.632 215.386c.06-1.28.228-2.525.491-3.733l-5.756-1.544a30.521 30.521 0 00-.694 5.277h5.959z"/>
      <path fill="url(#paint50_linear_11273:6)" d="M248.745 209.307a24.795 24.795 0 011.436-3.482l-5.157-2.98a29.591 29.591 0 00-2.047 4.918l5.768 1.544z"/>
      <path fill="#406EB2" d="M297.488 202.845l-5.158 2.98a22.127 22.127 0 011.436 3.482l5.769-1.544a29.173 29.173 0 00-2.047-4.918zM288.812 200.738a24.491 24.491 0 012.298 2.992l5.17-2.98a30.107 30.107 0 00-3.243-4.224l-4.225 4.212zM278.544 194.084c1.209.395 2.37.874 3.483 1.437l2.979-5.158a29.591 29.591 0 00-4.918-2.047l-1.544 5.768zM284.121 196.729a23.032 23.032 0 012.992 2.298l4.213-4.213a30.327 30.327 0 00-4.225-3.243l-2.98 5.158zM272.465 192.96c1.28.06 2.525.227 3.733.49l1.544-5.756a30.619 30.619 0 00-5.277-.694v5.96z" opacity=".43"/>
      <path fill="url(#paint51_linear_11273:6)" d="M248.111 221.538a24.027 24.027 0 01-.49-3.734h-5.96a29.51 29.51 0 00.694 5.278l5.756-1.544z"/>
      <path fill="url(#paint52_linear_11273:6)" d="M250.181 227.354a22.234 22.234 0 01-1.436-3.483l-5.768 1.544a29.637 29.637 0 002.047 4.919l5.157-2.98z"/>
      <path fill="url(#paint53_linear_11273:6)" d="M287.101 234.151a24.415 24.415 0 01-2.992 2.298l2.98 5.17a30.174 30.174 0 004.225-3.243l-4.213-4.225z"/>
      <path fill="url(#paint54_linear_11273:6)" d="M293.766 223.883a24.688 24.688 0 01-1.436 3.483l5.158 2.98a29.637 29.637 0 002.047-4.919l-5.769-1.544z"/>
      <path fill="url(#paint55_linear_11273:6)" d="M282.027 237.658a22.234 22.234 0 01-3.483 1.436l1.544 5.768a29.588 29.588 0 004.918-2.046l-2.979-5.158z"/>
      <path fill="#406EB2" d="M294.389 211.641c.264 1.208.419 2.465.491 3.734h5.96a29.578 29.578 0 00-.694-5.278l-5.757 1.544z" opacity=".43"/>
      <path fill="url(#paint56_linear_11273:6)" d="M294.88 217.804a22.39 22.39 0 01-.491 3.734l5.757 1.544c.382-1.712.61-3.471.694-5.278h-5.96z"/>
      <path fill="url(#paint57_linear_11273:6)" d="M291.11 229.46a23.032 23.032 0 01-2.298 2.992l4.213 4.213a30.174 30.174 0 003.243-4.225l-5.158-2.98z"/>
      <path fill="url(#paint58_linear_11273:6)" d="M258.391 236.449a23.1 23.1 0 01-2.992-2.298l-4.212 4.213a30.107 30.107 0 004.224 3.243l2.98-5.158z"/>
      <path fill="url(#paint59_linear_11273:6)" d="M253.688 232.44a24.584 24.584 0 01-2.297-2.992l-5.17 2.98a30.107 30.107 0 003.243 4.224l4.224-4.212z"/>
      <path fill="url(#paint60_linear_11273:6)" d="M270.048 240.219a22.377 22.377 0 01-3.734-.491l-1.544 5.757a30.63 30.63 0 005.278.694v-5.96z"/>
      <path fill="url(#paint61_linear_11273:6)" d="M263.968 239.106a24.808 24.808 0 01-3.483-1.436l-2.979 5.158a29.673 29.673 0 004.918 2.046l1.544-5.768z"/>
      <path fill="url(#paint62_linear_11273:6)" d="M276.198 239.728a23.88 23.88 0 01-3.733.491v5.96a29.488 29.488 0 005.277-.694l-1.544-5.757z"/>
    </g>
    <g>
      <path fill="url(#paint63_linear_11273:6)" d="M348.434 193.45a24.012 24.012 0 013.734-.49V187a29.499 29.499 0 00-5.278.694l1.544 5.756z"/>
      <path fill="url(#paint64_linear_11273:6)" d="M337.531 199.027a24.592 24.592 0 012.992-2.298l-2.98-5.169a30.107 30.107 0 00-4.224 3.243l4.212 4.224z"/>
      <path fill="url(#paint65_linear_11273:6)" d="M342.606 195.521a22.131 22.131 0 013.482-1.437l-1.544-5.768a29.627 29.627 0 00-4.918 2.047l2.98 5.158z"/>
      <path fill="url(#paint66_linear_11273:6)" d="M333.523 203.73a23.182 23.182 0 012.297-2.992l-4.212-4.212a30.107 30.107 0 00-3.243 4.224l5.158 2.98z"/>
      <path fill="url(#paint67_linear_11273:6)" d="M329.753 215.386c.06-1.28.227-2.525.491-3.733l-5.757-1.544a30.619 30.619 0 00-.694 5.277h5.96z"/>
      <path fill="url(#paint68_linear_11273:6)" d="M330.866 209.307a24.676 24.676 0 011.436-3.482l-5.158-2.98a29.503 29.503 0 00-2.046 4.918l5.768 1.544z"/>
      <path fill="#406EB2" d="M379.609 202.845l-5.158 2.98a22.223 22.223 0 011.436 3.482l5.768-1.544a29.087 29.087 0 00-2.046-4.918zM370.933 200.738a24.592 24.592 0 012.298 2.992l5.169-2.98a30.107 30.107 0 00-3.243-4.224l-4.224 4.212zM360.665 194.084a24.73 24.73 0 013.482 1.437l2.98-5.158a29.627 29.627 0 00-4.918-2.047l-1.544 5.768zM366.241 196.729a23.1 23.1 0 012.992 2.298l4.212-4.213a30.26 30.26 0 00-4.224-3.243l-2.98 5.158zM354.586 192.96c1.28.06 2.525.227 3.733.49l1.544-5.756a30.619 30.619 0 00-5.277-.694v5.96z" opacity=".43"/>
      <path fill="url(#paint69_linear_11273:6)" d="M330.231 221.538a24.027 24.027 0 01-.49-3.734h-5.96a29.51 29.51 0 00.694 5.278l5.756-1.544z"/>
      <path fill="url(#paint70_linear_11273:6)" d="M332.302 227.354a22.234 22.234 0 01-1.436-3.483l-5.768 1.544a29.548 29.548 0 002.046 4.919l5.158-2.98z"/>
      <path fill="#406EB2" d="M369.221 234.151a24.415 24.415 0 01-2.992 2.298l2.98 5.17a30.174 30.174 0 004.225-3.243l-4.213-4.225zM375.887 223.883a24.808 24.808 0 01-1.436 3.483l5.158 2.98a29.548 29.548 0 002.046-4.919l-5.768-1.544zM364.147 237.658a22.262 22.262 0 01-3.482 1.436l1.544 5.768a29.623 29.623 0 004.918-2.046l-2.98-5.158zM373.231 229.46a23.21 23.21 0 01-2.298 2.992l4.212 4.213a30.174 30.174 0 003.243-4.225l-5.157-2.98z" opacity=".43"/>
      <path fill="url(#paint71_linear_11273:6)" d="M340.512 236.449a23.032 23.032 0 01-2.992-2.298l-4.213 4.213a30.174 30.174 0 004.225 3.243l2.98-5.158z"/>
      <path fill="url(#paint72_linear_11273:6)" d="M335.808 232.44a24.592 24.592 0 01-2.298-2.992l-5.169 2.98a30.107 30.107 0 003.243 4.224l4.224-4.212z"/>
      <path fill="url(#paint73_linear_11273:6)" d="M352.168 240.219a22.377 22.377 0 01-3.734-.491l-1.544 5.757a30.63 30.63 0 005.278.694v-5.96z"/>
      <path fill="url(#paint74_linear_11273:6)" d="M346.088 239.106a24.795 24.795 0 01-3.482-1.436l-2.98 5.158a29.708 29.708 0 004.918 2.046l1.544-5.768z"/>
      <path fill="#406EB2" d="M358.319 239.728a23.88 23.88 0 01-3.733.491v5.96a29.488 29.488 0 005.277-.694l-1.544-5.757z" opacity=".43"/>
    </g>
    <g>
      <path fill="#F5F7F6" d="M184.586 216.814c0 .5-.132.945-.398 1.334-.262.39-.617.695-1.067.915.523.225.936.553 1.238.984.308.431.461.92.461 1.465 0 .867-.293 1.557-.88 2.071-.583.514-1.351.77-2.305.77-.963 0-1.736-.256-2.318-.77-.578-.518-.867-1.209-.867-2.071 0-.541.147-1.029.44-1.465a2.79 2.79 0 011.232-.991 2.624 2.624 0 01-1.053-.915 2.362 2.362 0 01-.385-1.327c0-.844.271-1.514.812-2.009.541-.495 1.254-.743 2.139-.743.881 0 1.592.248 2.133.743.546.495.818 1.165.818 2.009zm-1.038 4.671c0-.56-.179-1.016-.537-1.369-.353-.353-.816-.53-1.389-.53-.574 0-1.035.174-1.383.523-.344.348-.516.807-.516 1.376 0 .568.167 1.016.502 1.341.339.326.81.489 1.41.489.597 0 1.064-.163 1.404-.489.339-.33.509-.777.509-1.341zm-1.913-6.377c-.5 0-.905.156-1.217.468-.308.307-.461.726-.461 1.258 0 .509.151.922.454 1.239.307.312.715.467 1.224.467s.915-.155 1.218-.467c.307-.317.461-.73.461-1.239 0-.509-.158-.924-.475-1.245-.316-.321-.718-.481-1.204-.481zm11.069 4.836c0 1.49-.255 2.598-.764 3.322-.509.725-1.304 1.087-2.387 1.087-1.068 0-1.859-.353-2.373-1.059-.514-.711-.78-1.77-.798-3.178v-1.699c0-1.473.255-2.566.764-3.282.509-.715 1.307-1.073 2.394-1.073 1.077 0 1.871.346 2.38 1.039.509.688.77 1.752.784 3.192v1.651zm-1.273-1.741c0-1.077-.151-1.862-.454-2.352-.302-.496-.782-.743-1.437-.743-.652 0-1.126.245-1.424.736-.299.491-.452 1.245-.461 2.263v2.036c0 1.083.156 1.883.467 2.401.317.514.794.771 1.431.771.629 0 1.094-.243 1.397-.73.307-.486.468-1.252.481-2.297v-2.085zm2.793-2.077c0-.601.191-1.096.571-1.486.386-.39.879-.585 1.479-.585.61 0 1.103.197 1.479.592.381.39.571.896.571 1.52v.489c0 .605-.192 1.1-.578 1.485-.38.381-.866.571-1.458.571-.596 0-1.089-.19-1.479-.571-.39-.385-.585-.896-.585-1.534v-.481zm.95.53c0 .357.101.653.302.887.202.229.473.344.812.344.326 0 .587-.112.784-.337.202-.225.303-.532.303-.922v-.502c0-.358-.099-.654-.296-.888-.197-.233-.465-.35-.805-.35-.339 0-.607.117-.805.35-.197.234-.295.539-.295.915v.503zm3.928 5.104c0-.601.19-1.094.571-1.479.385-.39.878-.585 1.479-.585.6 0 1.093.193 1.479.578.385.385.578.897.578 1.534v.489c0 .6-.193 1.096-.578 1.485-.381.386-.869.578-1.466.578-.596 0-1.089-.19-1.479-.571-.389-.385-.584-.896-.584-1.534v-.495zm.949.537c0 .362.101.66.303.894.201.229.472.344.811.344.331 0 .594-.113.792-.337.197-.23.295-.539.295-.929v-.509c0-.362-.101-.658-.302-.887-.198-.23-.464-.344-.798-.344-.326 0-.592.114-.798.344-.202.224-.303.529-.303.914v.51zm-3.474 1.162l-.722-.454 4.891-7.828.722.454-4.891 7.828zM178.979 209.67v-4.722h1.333c.411 0 .774.091 1.09.272.315.182.558.44.729.775.173.335.261.72.263 1.155v.301c0 .446-.087.836-.26 1.171-.17.335-.416.593-.736.772a2.28 2.28 0 01-1.112.276h-1.307zm.623-4.21v3.701h.655c.48 0 .853-.15 1.119-.448.268-.298.402-.723.402-1.274v-.276c0-.536-.127-.953-.38-1.249-.25-.298-.607-.449-1.07-.454h-.726zm6.272 2.977h-1.979l-.444 1.233h-.642l1.803-4.722h.545l1.806 4.722h-.639l-.45-1.233zm-1.79-.512h1.605l-.804-2.209-.801 2.209zm6.356-2.465h-1.518v4.21h-.619v-4.21h-1.515v-.512h3.652v.512zm3.048 2.977h-1.978l-.444 1.233h-.642l1.803-4.722h.544l1.807 4.722h-.639l-.451-1.233zm-1.79-.512h1.605l-.804-2.209-.801 2.209zm7.968-.269c0 .702-.12 1.225-.36 1.566-.24.342-.615.513-1.125.513-.504 0-.877-.167-1.119-.5-.242-.335-.368-.834-.376-1.498v-.801c0-.694.12-1.21.36-1.547.24-.337.616-.506 1.128-.506.508 0 .882.163 1.122.49.24.324.364.826.37 1.504v.779zm-.6-.821c0-.508-.071-.877-.214-1.109-.143-.233-.369-.35-.678-.35-.307 0-.53.116-.671.347-.141.231-.213.587-.217 1.067v.96c0 .51.073.887.22 1.132.149.242.374.363.675.363.296 0 .515-.115.658-.344.145-.229.221-.59.227-1.083v-.983zm3.34 2.835h-.603v-3.999l-1.209.444v-.544l1.718-.646h.094v4.745z"/>
    </g>
    <g>
      <path fill="#F5F7F6" d="M265.308 214.915l-4.148 9.301h-1.335l4.135-8.971h-5.421V214.2h6.769v.715zm2.029 4.279l.509-4.994h5.132v1.176h-4.052l-.302 2.731c.49-.289 1.048-.433 1.671-.433.913 0 1.638.302 2.174.908.537.601.805 1.415.805 2.442 0 1.032-.28 1.846-.839 2.442-.555.592-1.332.887-2.332.887-.885 0-1.608-.245-2.167-.736-.56-.49-.878-1.169-.956-2.036h1.203c.078.573.283 1.007.613 1.3.33.289.766.434 1.307.434.591 0 1.055-.202 1.389-.606.34-.403.509-.961.509-1.671 0-.67-.183-1.207-.55-1.61-.362-.408-.846-.612-1.451-.612-.555 0-.991.121-1.307.364l-.338.275-1.018-.261zm7.217-3.068c0-.601.19-1.096.571-1.486.385-.39.878-.585 1.479-.585.61 0 1.103.197 1.479.592.38.39.571.896.571 1.52v.489c0 .605-.193 1.1-.578 1.485-.381.381-.867.571-1.459.571-.596 0-1.089-.19-1.479-.571-.389-.385-.584-.896-.584-1.534v-.481zm.949.53c0 .357.101.653.303.887.201.229.472.344.811.344.326 0 .587-.112.785-.337.201-.225.302-.532.302-.922v-.502c0-.358-.098-.654-.295-.888-.198-.233-.466-.35-.805-.35-.34 0-.608.117-.805.35-.197.234-.296.539-.296.915v.503zm3.928 5.104c0-.601.19-1.094.571-1.479.385-.39.878-.585 1.479-.585.601 0 1.094.193 1.479.578.385.385.578.897.578 1.534v.489c0 .6-.193 1.096-.578 1.485-.381.386-.869.578-1.465.578-.596 0-1.089-.19-1.479-.571-.39-.385-.585-.896-.585-1.534v-.495zm.949.537c0 .362.101.66.303.894.202.229.472.344.812.344.33 0 .594-.113.791-.337.197-.23.296-.539.296-.929v-.509c0-.362-.101-.658-.303-.887-.197-.23-.463-.344-.798-.344-.326 0-.592.114-.798.344-.202.224-.303.529-.303.914v.51zm-3.474 1.162l-.722-.454 4.891-7.828.722.454-4.891 7.828zM259.309 209.67v-4.722h1.333c.41 0 .774.091 1.089.272.316.182.559.44.73.775.173.335.261.72.263 1.155v.301c0 .446-.087.836-.26 1.171a1.8 1.8 0 01-.736.772 2.287 2.287 0 01-1.112.276h-1.307zm.622-4.21v3.701h.656c.48 0 .852-.15 1.118-.448.268-.298.403-.723.403-1.274v-.276c0-.536-.127-.953-.38-1.249-.251-.298-.607-.449-1.07-.454h-.727zm6.272 2.977h-1.978l-.444 1.233h-.642l1.803-4.722h.545l1.806 4.722h-.639l-.451-1.233zm-1.79-.512h1.606l-.805-2.209-.801 2.209zm6.357-2.465h-1.518v4.21h-.62v-4.21h-1.514v-.512h3.652v.512zm3.048 2.977h-1.978l-.445 1.233h-.642l1.803-4.722h.545l1.807 4.722h-.639l-.451-1.233zm-1.79-.512h1.605l-.804-2.209-.801 2.209zm7.968-.269c0 .702-.12 1.225-.36 1.566-.24.342-.615.513-1.125.513-.504 0-.877-.167-1.119-.5-.242-.335-.368-.834-.376-1.498v-.801c0-.694.119-1.21.359-1.547.24-.337.617-.506 1.129-.506.508 0 .882.163 1.122.49.24.324.363.826.37 1.504v.779zm-.6-.821c0-.508-.071-.877-.214-1.109-.143-.233-.369-.35-.678-.35-.307 0-.531.116-.671.347-.141.231-.213.587-.218 1.067v.96c0 .51.074.887.221 1.132.149.242.374.363.675.363.296 0 .515-.115.658-.344.145-.229.22-.59.227-1.083v-.983zm3.34 2.835h-.603v-3.999l-1.21.444v-.544l1.719-.646h.094v4.745z"/>
    </g>
    <g>
      <path fill="#F5F7F6" d="M341.221 219.194l.509-4.994h5.132v1.176h-4.052l-.302 2.731c.49-.289 1.048-.433 1.671-.433.913 0 1.638.302 2.174.908.537.601.805 1.415.805 2.442 0 1.032-.28 1.846-.839 2.442-.555.592-1.333.887-2.332.887-.885 0-1.608-.245-2.167-.736-.56-.49-.879-1.169-.957-2.036h1.204c.078.573.282 1.007.613 1.3.33.289.765.434 1.307.434.591 0 1.054-.202 1.389-.606.34-.403.509-.961.509-1.671 0-.67-.183-1.207-.55-1.61-.362-.408-.846-.612-1.452-.612-.554 0-.99.121-1.307.364l-.337.275-1.018-.261zm13.607.75c0 1.49-.254 2.598-.763 3.322-.509.725-1.305 1.087-2.387 1.087-1.069 0-1.86-.353-2.374-1.059-.513-.711-.779-1.77-.798-3.178v-1.699c0-1.473.255-2.566.764-3.282.509-.715 1.307-1.073 2.394-1.073 1.078 0 1.871.346 2.38 1.039.509.688.771 1.752.784 3.192v1.651zm-1.272-1.741c0-1.077-.152-1.862-.454-2.352-.303-.496-.782-.743-1.438-.743-.651 0-1.126.245-1.424.736-.298.491-.452 1.245-.461 2.263v2.036c0 1.083.156 1.883.468 2.401.316.514.793.771 1.431.771.628 0 1.093-.243 1.396-.73.307-.486.468-1.252.482-2.297v-2.085zm2.793-2.077c0-.601.19-1.096.571-1.486.385-.39.878-.585 1.479-.585.61 0 1.103.197 1.479.592.38.39.571.896.571 1.52v.489c0 .605-.193 1.1-.578 1.485-.381.381-.867.571-1.459.571-.596 0-1.089-.19-1.479-.571-.389-.385-.584-.896-.584-1.534v-.481zm.949.53c0 .357.101.653.303.887.201.229.472.344.811.344.326 0 .587-.112.785-.337.201-.225.302-.532.302-.922v-.502c0-.358-.098-.654-.295-.888-.198-.233-.466-.35-.805-.35-.34 0-.608.117-.805.35-.197.234-.296.539-.296.915v.503zm3.928 5.104c0-.601.19-1.094.571-1.479.385-.39.878-.585 1.479-.585.601 0 1.094.193 1.479.578.385.385.578.897.578 1.534v.489c0 .6-.193 1.096-.578 1.485-.381.386-.869.578-1.465.578-.596 0-1.089-.19-1.479-.571-.39-.385-.585-.896-.585-1.534v-.495zm.949.537c0 .362.101.66.303.894.202.229.472.344.812.344.33 0 .594-.113.791-.337.197-.23.296-.539.296-.929v-.509c0-.362-.101-.658-.303-.887-.197-.23-.463-.344-.798-.344-.326 0-.592.114-.798.344-.202.224-.303.529-.303.914v.51zm-3.474 1.162l-.722-.454 4.891-7.828.722.454-4.891 7.828zM341.104 209.67v-4.722h1.333c.411 0 .774.091 1.09.272.315.182.558.44.729.775.173.335.261.72.263 1.155v.301c0 .446-.087.836-.26 1.171-.17.335-.416.593-.736.772a2.284 2.284 0 01-1.112.276h-1.307zm.623-4.21v3.701h.655c.48 0 .853-.15 1.119-.448.268-.298.402-.723.402-1.274v-.276c0-.536-.127-.953-.38-1.249-.251-.298-.607-.449-1.07-.454h-.726zm6.272 2.977h-1.979l-.444 1.233h-.642l1.803-4.722h.545l1.806 4.722h-.639l-.45-1.233zm-1.791-.512h1.606l-.805-2.209-.801 2.209zm6.357-2.465h-1.518v4.21h-.619v-4.21h-1.515v-.512h3.652v.512zm3.048 2.977h-1.978l-.444 1.233h-.642l1.803-4.722h.544l1.807 4.722h-.639l-.451-1.233zm-1.79-.512h1.605l-.804-2.209-.801 2.209zm7.968-.269c0 .702-.12 1.225-.36 1.566-.24.342-.615.513-1.125.513-.504 0-.877-.167-1.119-.5-.242-.335-.368-.834-.376-1.498v-.801c0-.694.12-1.21.36-1.547.24-.337.616-.506 1.128-.506.508 0 .882.163 1.122.49.24.324.364.826.37 1.504v.779zm-.6-.821c0-.508-.071-.877-.214-1.109-.143-.233-.369-.35-.678-.35-.307 0-.531.116-.671.347-.141.231-.213.587-.217 1.067v.96c0 .51.073.887.22 1.132.149.242.374.363.675.363.296 0 .515-.115.658-.344.145-.229.221-.59.227-1.083v-.983zm3.34 2.835h-.603v-3.999l-1.209.444v-.544l1.718-.646h.094v4.745z"/>
    </g>
  </g>
  <g>
    <path fill="url(#paint75_linear_11273:6)" d="M54.161 56.116l-7.523 7.523V53c-2.938 0-5.596 1.19-7.522 3.116A10.603 10.603 0 0036 63.64c0 2.938 1.19 5.597 3.116 7.523a10.602 10.602 0 007.523 3.115c2.938 0 5.596-1.189 7.522-3.115a10.603 10.603 0 003.116-7.523c0-2.938-1.19-5.597-3.116-7.523z"/>
    <path fill="#406EB2" d="M46.638 63.639l7.523-7.523a10.603 10.603 0 00-7.523-3.115v10.638z" opacity=".43"/>
    <path fill="url(#paint76_linear_11273:6)" d="M75.85 63.639V53c-2.937 0-5.596 1.19-7.522 3.116a10.603 10.603 0 00-3.116 7.523c0 2.938 1.19 5.596 3.116 7.522a10.602 10.602 0 007.523 3.116c2.938 0 5.597-1.19 7.523-3.116a10.603 10.603 0 003.115-7.523H75.851z"/>
    <path fill="#406EB2" d="M75.851 53v10.639H86.49c0-2.939-1.19-5.597-3.116-7.523A10.602 10.602 0 0075.85 53z" opacity=".43"/>
    <g>
      <path fill="#406EB2" d="M142.314 56.116A10.602 10.602 0 00134.791 53v21.277c2.938 0 5.597-1.19 7.523-3.116a10.604 10.604 0 003.116-7.523 10.62 10.62 0 00-3.116-7.522z" opacity=".43"/>
      <path fill="url(#paint77_linear_11273:6)" d="M127.268 56.116a10.603 10.603 0 00-3.115 7.523c0 2.938 1.189 5.596 3.115 7.522a10.604 10.604 0 007.523 3.116V53a10.623 10.623 0 00-7.523 3.116z"/>
    </g>
    <g>
      <path fill="#406EB2" d="M112.231 56.116A10.6 10.6 0 00104.709 53v10.639l-7.523 7.522a10.602 10.602 0 007.523 3.116 10.6 10.6 0 007.522-3.116 10.6 10.6 0 003.116-7.523 10.6 10.6 0 00-3.116-7.522z" opacity=".43"/>
      <path fill="url(#paint78_linear_11273:6)" d="M97.186 56.116a10.602 10.602 0 00-3.116 7.523c0 2.938 1.19 5.596 3.116 7.522l7.523-7.523V53a10.62 10.62 0 00-7.523 3.116z"/>
    </g>
  </g>
  <g>
    <rect width="144.573" height="86" x="-30" y="129" fill="#000" rx="8.48"/>
    <rect width="144.22" height="85.647" x="-29.823" y="129.177" stroke="#fff" stroke-opacity=".5" stroke-width=".353" rx="8.303"/>
    <g>
      <path fill="#FDFEFF" d="M100.862 144.867H-10.622v.339h111.484v-.339zM100.862 148.665H-10.622v.339h111.484v-.339zM100.862 152.463H-10.622v.339h111.484v-.339zM100.862 156.265H-10.622v.344h111.484v-.344zM100.862 160.063H-10.622v.344h111.484v-.344zM100.862 163.861H-10.622v.344h111.484v-.344zM100.862 167.659H-10.622v.34h111.484v-.34zM100.862 171.457H-10.622v.344h111.484v-.344zM100.862 175.255H-10.622v.34h111.484v-.34zM100.862 179.058H-10.622v.339h111.484v-.339zM100.862 182.856H-10.622v.339h111.484v-.339zM100.862 186.654H-10.622v.339h111.484v-.339zM100.862 190.452H-10.622v.339h111.484v-.339zM100.862 194.25H-10.622v.339h111.484v-.339z"/>
      <path fill="#FDFEFF" d="M9.707 144.969h-.34v49.601h.34v-49.601zM19.85 144.969h-.34v49.601h.34v-49.601zM29.993 144.969h-.339v49.601h.34v-49.601zM40.132 144.969h-.34v49.601h.34v-49.601zM50.276 144.969h-.34v49.601h.34v-49.601zM60.419 144.969h-.34v49.601h.34v-49.601zM70.562 144.969h-.339v49.601h.34v-49.601zM80.706 144.969h-.34v49.601h.34v-49.601zM90.849 144.969h-.34v49.601h.34v-49.601zM100.988 144.969h-.34v49.601h.34v-49.601z"/>
      <g>
        <path fill="#F5F7F6" d="M-2.995 200.419h-1.433v-.199l.757-.842c.112-.127.19-.23.231-.309a.52.52 0 00.065-.248.391.391 0 00-.104-.281.363.363 0 00-.276-.11.431.431 0 00-.323.119.448.448 0 00-.114.327h-.278c0-.201.064-.364.193-.488.13-.124.304-.186.522-.186.203 0 .364.053.482.16a.545.545 0 01.177.426c0 .215-.137.471-.411.769l-.586.636h1.098v.226zm1.667-.933c0 .326-.056.568-.167.726-.111.158-.285.237-.522.237-.233 0-.406-.077-.518-.231-.112-.155-.17-.387-.174-.694v-.371c0-.322.055-.561.166-.717.112-.156.286-.234.523-.234.236 0 .409.075.52.226.111.151.169.383.172.698v.36zm-.278-.38c0-.235-.034-.407-.1-.514-.066-.108-.17-.162-.314-.162-.142 0-.246.054-.31.161-.066.107-.1.272-.101.494v.445c0 .236.034.411.102.524.069.112.173.169.312.169.138 0 .24-.053.305-.16.067-.106.103-.273.106-.502v-.455zm1.547 1.313h-.28v-1.852l-.56.206v-.253l.797-.299h.043v2.198zm.942-1.096l.112-1.091h1.12v.257H1.23l-.066.596a.707.707 0 01.365-.095c.2 0 .358.067.475.199.117.131.176.309.176.533 0 .226-.061.403-.183.534-.121.129-.291.193-.51.193a.692.692 0 01-.473-.16.643.643 0 01-.209-.445h.263c.017.125.062.22.134.284a.419.419 0 00.285.095c.13 0 .23-.044.304-.133a.548.548 0 00.111-.365.501.501 0 00-.12-.351.4.4 0 00-.317-.134.453.453 0 00-.286.08l-.073.06-.223-.057z"/>
      </g>
      <g>
        <path fill="#F5F7F6" d="M7.552 200.419H6.12v-.199l.757-.842c.112-.127.19-.23.231-.309a.52.52 0 00.065-.248.391.391 0 00-.104-.281.363.363 0 00-.276-.11.431.431 0 00-.323.119.448.448 0 00-.114.327h-.278c0-.201.064-.364.194-.488s.304-.186.52-.186c.204 0 .365.053.483.16a.545.545 0 01.178.426c0 .215-.138.471-.412.769l-.586.636h1.098v.226zm1.667-.933c0 .326-.056.568-.167.726-.111.158-.285.237-.522.237-.233 0-.406-.077-.518-.231-.112-.155-.17-.387-.174-.694v-.371c0-.322.055-.561.167-.717.11-.156.285-.234.522-.234.236 0 .41.075.52.226.112.151.169.383.172.698v.36zm-.278-.38c0-.235-.033-.407-.1-.514-.066-.108-.17-.162-.314-.162-.142 0-.245.054-.31.161-.066.107-.1.272-.101.494v.445c0 .236.034.411.102.524.069.112.173.169.312.169.138 0 .24-.053.305-.16.068-.106.103-.273.106-.502v-.455zm1.547 1.313h-.28v-1.852l-.56.206v-.253l.797-.299h.043v2.198zm1.906-2.189v.236h-.052c-.216.004-.388.068-.516.192-.129.125-.203.299-.223.525a.595.595 0 01.472-.199c.19 0 .342.068.455.202a.773.773 0 01.172.52c0 .225-.062.405-.185.541a.632.632 0 01-.493.202c-.21 0-.38-.08-.51-.24-.13-.161-.195-.369-.195-.622v-.107c0-.402.086-.71.257-.922.172-.214.428-.323.768-.328h.05zm-.366.986a.438.438 0 00-.263.086.445.445 0 00-.166.214v.103c0 .18.04.325.121.435.082.11.183.166.304.166a.35.35 0 00.295-.139.57.57 0 00.108-.362.566.566 0 00-.11-.363.345.345 0 00-.289-.14z"/>
      </g>
      <g>
        <path fill="#F5F7F6" d="M17.968 200.419h-1.433v-.199l.757-.842c.112-.127.19-.23.231-.309a.52.52 0 00.065-.248.391.391 0 00-.104-.281.363.363 0 00-.276-.11.431.431 0 00-.323.119.449.449 0 00-.115.327h-.277c0-.201.064-.364.193-.488.13-.124.304-.186.522-.186.203 0 .364.053.482.16a.545.545 0 01.177.426c0 .215-.137.471-.411.769l-.586.636h1.098v.226zm1.666-.933c0 .326-.055.568-.166.726-.111.158-.285.237-.522.237-.233 0-.406-.077-.518-.231-.112-.155-.17-.387-.174-.694v-.371c0-.322.055-.561.166-.717.112-.156.286-.234.523-.234.236 0 .409.075.52.226.111.151.168.383.171.698v.36zm-.277-.38c0-.235-.034-.407-.1-.514-.066-.108-.17-.162-.314-.162-.142 0-.246.054-.31.161-.066.107-.1.272-.101.494v.445c0 .236.034.411.102.524.069.112.173.169.312.169.137 0 .24-.053.305-.16.067-.106.102-.273.105-.502v-.455zm1.547 1.313h-.28v-1.852l-.56.206v-.253l.797-.299h.043v2.198zm2.227-2.031l-.906 2.031h-.292l.904-1.959h-1.184v-.228h1.478v.156z"/>
      </g>
      <g>
        <path fill="#F5F7F6" d="M27.813 200.419h-1.434v-.199l.758-.842c.112-.127.189-.23.231-.309a.52.52 0 00.065-.248.391.391 0 00-.104-.281.363.363 0 00-.277-.11.431.431 0 00-.323.119.449.449 0 00-.114.327h-.278c0-.201.065-.364.194-.488.13-.124.304-.186.521-.186.204 0 .365.053.483.16a.545.545 0 01.177.426c0 .215-.137.471-.412.769l-.586.636h1.099v.226zm1.666-.933c0 .326-.055.568-.167.726-.11.158-.285.237-.521.237-.233 0-.406-.077-.518-.231-.113-.155-.17-.387-.175-.694v-.371c0-.322.056-.561.167-.717.111-.156.286-.234.523-.234.235 0 .409.075.52.226.111.151.168.383.171.698v.36zm-.278-.38c0-.235-.033-.407-.099-.514-.066-.108-.17-.162-.314-.162-.142 0-.246.054-.311.161-.065.107-.099.272-.1.494v.445c0 .236.033.411.102.524.069.112.173.169.312.169.137 0 .239-.053.305-.16.067-.106.102-.273.105-.502v-.455zm1.548 1.313h-.28v-1.852l-.56.206v-.253l.796-.299h.044v2.198zm2.141-1.616c0 .109-.029.206-.087.291a.583.583 0 01-.233.2.623.623 0 01.27.215c.068.094.101.201.101.32a.57.57 0 01-.192.452.734.734 0 01-.504.168c-.21 0-.379-.056-.506-.168a.577.577 0 01-.19-.452.56.56 0 01.097-.32.617.617 0 01.269-.217.572.572 0 01-.23-.199.518.518 0 01-.084-.29c0-.185.059-.331.177-.439a.666.666 0 01.468-.162c.192 0 .347.054.465.162.12.108.18.254.18.439zm-.227 1.02a.402.402 0 00-.117-.299.411.411 0 00-.303-.116.409.409 0 00-.303.114.412.412 0 00-.112.301.39.39 0 00.11.293.427.427 0 00.308.107c.13 0 .232-.036.306-.107a.39.39 0 00.111-.293zm-.417-1.393a.36.36 0 00-.267.102.372.372 0 00-.1.275c0 .111.033.201.099.271a.359.359 0 00.267.102c.112 0 .2-.034.266-.102.067-.07.101-.16.101-.271a.371.371 0 00-.104-.272.354.354 0 00-.263-.105z"/>
      </g>
      <g>
        <path fill="#F5F7F6" d="M38.053 200.419H36.62v-.199l.757-.842c.112-.127.19-.23.231-.309a.52.52 0 00.065-.248.391.391 0 00-.104-.281.363.363 0 00-.276-.11.431.431 0 00-.323.119.449.449 0 00-.114.327h-.278c0-.201.064-.364.194-.488s.304-.186.521-.186c.203 0 .364.053.482.16a.545.545 0 01.178.426c0 .215-.138.471-.412.769l-.586.636h1.098v.226zm1.667-.933c0 .326-.056.568-.167.726-.111.158-.285.237-.521.237-.234 0-.407-.077-.519-.231-.112-.155-.17-.387-.174-.694v-.371c0-.322.055-.561.167-.717.11-.156.285-.234.523-.234.235 0 .408.075.52.226.11.151.168.383.17.698v.36zm-.278-.38c0-.235-.033-.407-.1-.514-.066-.108-.17-.162-.313-.162s-.246.054-.312.161c-.065.107-.098.272-.1.494v.445c0 .236.034.411.102.524.07.112.173.169.313.169.137 0 .238-.053.305-.16.067-.106.102-.273.105-.502v-.455zm1.547 1.313h-.28v-1.852l-.56.206v-.253l.797-.299h.043v2.198zm1.88-.961a.694.694 0 01-.209.167.561.561 0 01-.264.063.588.588 0 01-.33-.093.616.616 0 01-.217-.262.898.898 0 01-.077-.374c0-.146.028-.278.083-.395a.618.618 0 01.595-.362c.216 0 .387.081.51.243.126.161.189.382.189.661v.081c0 .426-.084.737-.253.933-.168.196-.422.296-.762.301h-.054v-.234h.059c.23-.004.406-.064.529-.179.123-.116.19-.3.201-.55zm-.428 0a.427.427 0 00.257-.086.503.503 0 00.173-.212v-.111a.766.766 0 00-.12-.445c-.078-.114-.178-.171-.3-.171a.356.356 0 00-.294.141.578.578 0 00-.111.37c0 .149.035.272.106.37a.343.343 0 00.289.144z"/>
      </g>
      <g>
        <path fill="#F5F7F6" d="M48.601 200.419h-1.434v-.199l.758-.842c.112-.127.19-.23.231-.309a.52.52 0 00.065-.248.391.391 0 00-.104-.281.363.363 0 00-.276-.11.431.431 0 00-.323.119.449.449 0 00-.115.327h-.278c0-.201.065-.364.194-.488.13-.124.304-.186.522-.186.203 0 .364.053.482.16a.545.545 0 01.177.426c0 .215-.137.471-.411.769l-.586.636H48.6v.226zm1.666-.933c0 .326-.055.568-.166.726-.112.158-.285.237-.522.237-.233 0-.406-.077-.518-.231-.112-.155-.17-.387-.175-.694v-.371c0-.322.056-.561.167-.717.111-.156.286-.234.523-.234.236 0 .409.075.52.226.111.151.168.383.171.698v.36zm-.278-.38c0-.235-.033-.407-.099-.514-.066-.108-.17-.162-.314-.162-.142 0-.246.054-.31.161-.066.107-.1.272-.102.494v.445c0 .236.035.411.103.524.069.112.173.169.312.169.137 0 .24-.053.305-.16.067-.106.102-.273.105-.502v-.455zm2.068 1.313h-1.434v-.199l.758-.842c.112-.127.19-.23.231-.309a.52.52 0 00.065-.248.391.391 0 00-.104-.281.363.363 0 00-.276-.11.43.43 0 00-.323.119.449.449 0 00-.115.327h-.278c0-.201.065-.364.194-.488.13-.124.304-.186.522-.186.203 0 .364.053.482.16a.545.545 0 01.177.426c0 .215-.137.471-.411.769l-.586.636h1.098v.226zm1.666-.933c0 .326-.055.568-.166.726-.112.158-.285.237-.522.237-.233 0-.406-.077-.518-.231-.112-.155-.17-.387-.175-.694v-.371c0-.322.056-.561.167-.717.111-.156.286-.234.523-.234.236 0 .409.075.52.226.111.151.168.383.171.698v.36zm-.278-.38c0-.235-.033-.407-.099-.514-.066-.108-.17-.162-.314-.162-.142 0-.246.054-.31.161-.066.107-.1.272-.102.494v.445c0 .236.035.411.103.524.069.112.173.169.312.169.137 0 .24-.053.305-.16.067-.106.102-.273.105-.502v-.455z"/>
      </g>
      <g>
        <path fill="#F5F7F6" d="M59.06 200.419h-1.433v-.199l.757-.842c.112-.127.19-.23.232-.309a.52.52 0 00.064-.248.391.391 0 00-.103-.281.363.363 0 00-.277-.11.431.431 0 00-.323.119.449.449 0 00-.114.327h-.278c0-.201.065-.364.194-.488.13-.124.304-.186.521-.186.203 0 .364.053.482.16a.545.545 0 01.178.426c0 .215-.138.471-.412.769l-.586.636h1.098v.226zm1.667-.933c0 .326-.056.568-.167.726-.111.158-.285.237-.521.237-.234 0-.407-.077-.519-.231-.112-.155-.17-.387-.174-.694v-.371c0-.322.056-.561.167-.717.11-.156.285-.234.523-.234.235 0 .408.075.52.226.11.151.168.383.17.698v.36zm-.278-.38c0-.235-.033-.407-.1-.514-.066-.108-.17-.162-.313-.162s-.246.054-.312.161c-.065.107-.098.272-.1.494v.445c0 .236.034.411.102.524.07.112.173.169.313.169.137 0 .239-.053.305-.16.067-.106.102-.273.105-.502v-.455zm2.067 1.313h-1.433v-.199l.757-.842c.112-.127.19-.23.232-.309a.52.52 0 00.064-.248.39.39 0 00-.104-.281.363.363 0 00-.276-.11.431.431 0 00-.323.119.449.449 0 00-.114.327h-.278c0-.201.064-.364.194-.488s.304-.186.521-.186c.203 0 .364.053.482.16a.545.545 0 01.178.426c0 .215-.137.471-.412.769l-.586.636h1.098v.226zm1.209 0h-.28v-1.852l-.56.206v-.253l.796-.299h.044v2.198z"/>
      </g>
      <g>
        <path fill="#F5F7F6" d="M68.971 200.419h-1.433v-.199l.757-.842c.112-.127.19-.23.232-.309a.521.521 0 00.064-.248.391.391 0 00-.103-.281.363.363 0 00-.277-.11.43.43 0 00-.323.119.448.448 0 00-.114.327h-.278c0-.201.064-.364.194-.488s.304-.186.521-.186c.203 0 .364.053.482.16a.545.545 0 01.178.426c0 .215-.138.471-.412.769l-.586.636h1.098v.226zm1.667-.933c0 .326-.056.568-.167.726-.111.158-.285.237-.522.237-.233 0-.406-.077-.518-.231-.112-.155-.17-.387-.174-.694v-.371c0-.322.055-.561.167-.717.11-.156.285-.234.522-.234.236 0 .41.075.52.226.112.151.169.383.172.698v.36zm-.278-.38c0-.235-.033-.407-.1-.514-.066-.108-.17-.162-.314-.162-.142 0-.245.054-.31.161-.066.107-.1.272-.101.494v.445c0 .236.034.411.102.524.07.112.173.169.313.169.137 0 .238-.053.304-.16.068-.106.103-.273.106-.502v-.455zm2.067 1.313h-1.433v-.199l.757-.842c.112-.127.19-.23.231-.309a.52.52 0 00.065-.248.391.391 0 00-.103-.281.363.363 0 00-.277-.11.431.431 0 00-.323.119.449.449 0 00-.114.327h-.278c0-.201.064-.364.194-.488s.304-.186.521-.186c.203 0 .364.053.482.16a.545.545 0 01.178.426c0 .215-.138.471-.412.769l-.586.636h1.098v.226zm1.728 0h-1.433v-.199l.757-.842c.112-.127.19-.23.231-.309a.52.52 0 00.065-.248.39.39 0 00-.104-.281.363.363 0 00-.276-.11.431.431 0 00-.323.119.449.449 0 00-.114.327h-.278c0-.201.064-.364.194-.488s.304-.186.521-.186c.203 0 .364.053.482.16a.545.545 0 01.178.426c0 .215-.138.471-.412.769l-.586.636h1.098v.226z"/>
      </g>
      <g>
        <path fill="#F5F7F6" d="M78.904 200.419h-1.433v-.199l.757-.842c.112-.127.19-.23.232-.309a.52.52 0 00.064-.248.391.391 0 00-.103-.281.363.363 0 00-.277-.11.431.431 0 00-.323.119.449.449 0 00-.114.327h-.278c0-.201.064-.364.194-.488s.304-.186.521-.186c.203 0 .364.053.482.16a.545.545 0 01.178.426c0 .215-.138.471-.412.769l-.586.636h1.098v.226zm1.667-.933c0 .326-.056.568-.167.726-.111.158-.285.237-.522.237-.233 0-.406-.077-.518-.231-.112-.155-.17-.387-.174-.694v-.371c0-.322.055-.561.167-.717.11-.156.285-.234.522-.234.236 0 .41.075.52.226.112.151.169.383.172.698v.36zm-.278-.38c0-.235-.033-.407-.1-.514-.066-.108-.17-.162-.314-.162-.142 0-.245.054-.31.161-.066.107-.1.272-.101.494v.445c0 .236.034.411.102.524.07.112.173.169.313.169.137 0 .238-.053.305-.16.067-.106.102-.273.105-.502v-.455zm2.067 1.313h-1.433v-.199l.757-.842c.112-.127.19-.23.231-.309a.52.52 0 00.065-.248.39.39 0 00-.104-.281.363.363 0 00-.276-.11.431.431 0 00-.323.119.449.449 0 00-.114.327h-.278c0-.201.064-.364.194-.488s.304-.186.521-.186c.203 0 .364.053.482.16a.545.545 0 01.178.426c0 .215-.138.471-.412.769l-.586.636h1.098v.226zm.699-1.229h.209a.46.46 0 00.31-.103.347.347 0 00.112-.272c0-.257-.128-.385-.383-.385a.4.4 0 00-.289.104.358.358 0 00-.106.272h-.278c0-.174.063-.317.19-.432a.694.694 0 01.483-.172c.206 0 .368.054.485.163.117.11.176.261.176.456a.476.476 0 01-.093.276.554.554 0 01-.251.2c.12.038.213.101.278.189.066.088.1.196.1.323a.599.599 0 01-.193.468.72.72 0 01-.5.172.743.743 0 01-.502-.166.555.555 0 01-.193-.441h.28c0 .116.037.208.112.277a.43.43 0 00.302.104c.135 0 .237-.035.308-.106.072-.07.107-.17.107-.302a.37.37 0 00-.117-.293c-.078-.068-.19-.103-.338-.105h-.209v-.227z"/>
      </g>
      <g>
        <path fill="#F5F7F6" d="M89.123 200.419H87.69v-.199l.757-.842c.112-.127.19-.23.231-.309a.521.521 0 00.065-.248.391.391 0 00-.104-.281.363.363 0 00-.276-.11.43.43 0 00-.323.119.448.448 0 00-.115.327h-.278c0-.201.065-.364.194-.488.13-.124.304-.186.522-.186.203 0 .364.053.482.16a.545.545 0 01.177.426c0 .215-.137.471-.411.769l-.586.636h1.098v.226zm1.666-.933c0 .326-.055.568-.166.726-.112.158-.285.237-.522.237-.233 0-.406-.077-.518-.231-.112-.155-.17-.387-.174-.694v-.371c0-.322.055-.561.166-.717.111-.156.286-.234.523-.234.236 0 .409.075.52.226.111.151.168.383.171.698v.36zm-.278-.38c0-.235-.033-.407-.099-.514-.066-.108-.17-.162-.314-.162-.142 0-.246.054-.31.161-.066.107-.1.272-.102.494v.445c0 .236.035.411.103.524.069.112.173.169.312.169.138 0 .24-.053.305-.16.067-.106.102-.273.105-.502v-.455zm2.068 1.313h-1.433v-.199l.757-.842c.112-.127.19-.23.231-.309a.52.52 0 00.065-.248.391.391 0 00-.104-.281.363.363 0 00-.276-.11.431.431 0 00-.323.119.449.449 0 00-.115.327h-.278c0-.201.065-.364.194-.488.13-.124.304-.186.522-.186.203 0 .364.053.482.16a.545.545 0 01.177.426c0 .215-.137.471-.411.769l-.586.636h1.098v.226zm1.468-.734h.304v.227h-.304v.507h-.28v-.507h-.996v-.164l.98-1.516h.296v1.453zm-.96 0h.68v-1.073l-.032.06-.648 1.013z"/>
      </g>
      <g>
        <path fill="url(#paint79_linear_11273:6)" d="M90.584 163.987H80.138l-10.087-7.368-10 7.893-10.352-3.77-9.822 14.908H29.529l-10.167 7.522-9.911-11.487-10.088 3.858v19.274H90.65l-.065-30.83z"/>
        <path fill="url(#paint80_linear_11273:6)" d="M19.32 183.53l-9.948-11.534-9.916 3.794-.186-.493 10.26-3.924 9.87 11.445 10.04-7.428h10.297l9.86-14.969 10.408 3.794 10.036-7.926 10.181 7.433h10.362v.53H80.05l-9.995-7.303-9.957 7.861-10.292-3.752-9.785 14.857H29.611L19.32 183.53z"/>
        <path fill="#F5F7F6" d="M.488 175.543c0 .623-.502 1.125-1.125 1.125a1.123 1.123 0 01-1.125-1.125c0-.623.503-1.125 1.125-1.125.623 0 1.125.502 1.125 1.125zM10.576 171.685c0 .623-.502 1.125-1.125 1.125a1.123 1.123 0 01-1.125-1.125c0-.623.502-1.125 1.125-1.125a1.12 1.12 0 011.125 1.125zM20.487 183.172a1.126 1.126 0 11-2.252-.002 1.126 1.126 0 012.252.002zM30.653 175.65a1.126 1.126 0 11-1.125-1.125c.623 0 1.125.507 1.125 1.125zM41.006 175.65a1.126 1.126 0 11-1.125-1.125 1.13 1.13 0 011.125 1.125zM50.829 160.742a1.126 1.126 0 11-1.125-1.125c.618 0 1.125.502 1.125 1.125zM61.176 164.512c0 .623-.502 1.125-1.125 1.125a1.123 1.123 0 01-1.125-1.125c0-.623.503-1.125 1.125-1.125.623 0 1.125.502 1.125 1.125zM71.176 156.619a1.126 1.126 0 11-2.252-.002 1.126 1.126 0 012.252.002zM81.263 163.987c0 .623-.502 1.125-1.125 1.125a1.123 1.123 0 01-1.125-1.125 1.126 1.126 0 012.25 0zM91.709 164.029a1.126 1.126 0 11-1.125-1.125c.618 0 1.125.506 1.125 1.125z"/>
      </g>
    </g>
  </g>
  <defs>
    <linearGradient id="paint1_linear_11273:6" x1="313.692" x2="313.692" y1="81.284" y2="19.868" gradientUnits="userSpaceOnUse">
      <stop stop-color="#27B7FF"/>
      <stop offset=".99" stop-color="#F408AB"/>
    </linearGradient>
    <linearGradient id="paint3_linear_11273:6" x1="327.852" x2="327.852" y1="81.284" y2="19.867" gradientUnits="userSpaceOnUse">
      <stop stop-color="#27B7FF"/>
      <stop offset=".99" stop-color="#F408AB"/>
    </linearGradient>
    <linearGradient id="paint6_linear_11273:6" x1="342.643" x2="318.184" y1="62.501" y2="38.042" gradientUnits="userSpaceOnUse">
      <stop stop-color="#071A35"/>
      <stop offset="1" stop-color="#193566"/>
    </linearGradient>
    <linearGradient id="paint7_linear_11273:6" x1="146.41" x2="146.41" y1="141.634" y2="113.543" gradientUnits="userSpaceOnUse">
      <stop stop-color="#27B7FF"/>
      <stop offset=".99" stop-color="#F408AB"/>
    </linearGradient>
    <linearGradient id="paint8_linear_11273:6" x1="149.46" x2="149.46" y1="141.634" y2="113.543" gradientUnits="userSpaceOnUse">
      <stop stop-color="#27B7FF"/>
      <stop offset=".99" stop-color="#F408AB"/>
    </linearGradient>
    <linearGradient id="paint9_linear_11273:6" x1="155.559" x2="155.559" y1="141.634" y2="113.543" gradientUnits="userSpaceOnUse">
      <stop stop-color="#27B7FF"/>
      <stop offset=".99" stop-color="#F408AB"/>
    </linearGradient>
    <linearGradient id="paint10_linear_11273:6" x1="158.609" x2="158.609" y1="141.634" y2="113.543" gradientUnits="userSpaceOnUse">
      <stop stop-color="#27B7FF"/>
      <stop offset=".99" stop-color="#F408AB"/>
    </linearGradient>
    <linearGradient id="paint11_linear_11273:6" x1="164.709" x2="164.709" y1="141.634" y2="113.543" gradientUnits="userSpaceOnUse">
      <stop stop-color="#27B7FF"/>
      <stop offset=".99" stop-color="#F408AB"/>
    </linearGradient>
    <linearGradient id="paint12_linear_11273:6" x1="167.759" x2="167.759" y1="141.634" y2="113.543" gradientUnits="userSpaceOnUse">
      <stop stop-color="#27B7FF"/>
      <stop offset=".99" stop-color="#F408AB"/>
    </linearGradient>
    <linearGradient id="paint13_linear_11273:6" x1="173.858" x2="173.858" y1="141.634" y2="113.543" gradientUnits="userSpaceOnUse">
      <stop stop-color="#27B7FF"/>
      <stop offset=".99" stop-color="#F408AB"/>
    </linearGradient>
    <linearGradient id="paint14_linear_11273:6" x1="176.908" x2="176.908" y1="141.634" y2="113.543" gradientUnits="userSpaceOnUse">
      <stop stop-color="#27B7FF"/>
      <stop offset=".99" stop-color="#F408AB"/>
    </linearGradient>
    <linearGradient id="paint15_linear_11273:6" x1="183.008" x2="183.008" y1="141.634" y2="113.543" gradientUnits="userSpaceOnUse">
      <stop stop-color="#27B7FF"/>
      <stop offset=".99" stop-color="#F408AB"/>
    </linearGradient>
    <linearGradient id="paint16_linear_11273:6" x1="186.058" x2="186.058" y1="141.634" y2="113.543" gradientUnits="userSpaceOnUse">
      <stop stop-color="#27B7FF"/>
      <stop offset=".99" stop-color="#F408AB"/>
    </linearGradient>
    <linearGradient id="paint17_linear_11273:6" x1="192.157" x2="192.157" y1="141.634" y2="113.543" gradientUnits="userSpaceOnUse">
      <stop stop-color="#27B7FF"/>
      <stop offset=".99" stop-color="#F408AB"/>
    </linearGradient>
    <linearGradient id="paint18_linear_11273:6" x1="195.207" x2="195.207" y1="141.634" y2="113.543" gradientUnits="userSpaceOnUse">
      <stop stop-color="#27B7FF"/>
      <stop offset=".99" stop-color="#F408AB"/>
    </linearGradient>
    <linearGradient id="paint19_linear_11273:6" x1="201.307" x2="201.307" y1="141.634" y2="113.543" gradientUnits="userSpaceOnUse">
      <stop stop-color="#27B7FF"/>
      <stop offset=".99" stop-color="#F408AB"/>
    </linearGradient>
    <linearGradient id="paint20_linear_11273:6" x1="204.357" x2="204.357" y1="141.634" y2="113.543" gradientUnits="userSpaceOnUse">
      <stop stop-color="#27B7FF"/>
      <stop offset=".99" stop-color="#F408AB"/>
    </linearGradient>
    <linearGradient id="paint21_linear_11273:6" x1="210.456" x2="210.456" y1="141.634" y2="113.543" gradientUnits="userSpaceOnUse">
      <stop stop-color="#27B7FF"/>
      <stop offset=".99" stop-color="#F408AB"/>
    </linearGradient>
    <linearGradient id="paint22_linear_11273:6" x1="213.506" x2="213.506" y1="141.634" y2="113.543" gradientUnits="userSpaceOnUse">
      <stop stop-color="#27B7FF"/>
      <stop offset=".99" stop-color="#F408AB"/>
    </linearGradient>
    <linearGradient id="paint23_linear_11273:6" x1="238.581" x2="238.581" y1="80.246" y2="48.84" gradientUnits="userSpaceOnUse">
      <stop offset=".01" stop-opacity="0"/>
      <stop offset="1" stop-color="#0198CE"/>
    </linearGradient>
    <linearGradient id="paint24_linear_11273:6" x1="158.147" x2="443.272" y1="190.229" y2="190.229" gradientUnits="userSpaceOnUse">
      <stop offset=".01" stop-color="#F408AB"/>
      <stop offset="1" stop-color="#27B7FF"/>
    </linearGradient>
    <linearGradient id="paint25_linear_11273:6" x1="158.147" x2="443.272" y1="195.299" y2="195.299" gradientUnits="userSpaceOnUse">
      <stop offset=".01" stop-color="#F408AB"/>
      <stop offset="1" stop-color="#27B7FF"/>
    </linearGradient>
    <linearGradient id="paint26_linear_11273:6" x1="158.147" x2="443.272" y1="191.918" y2="191.918" gradientUnits="userSpaceOnUse">
      <stop offset=".01" stop-color="#F408AB"/>
      <stop offset="1" stop-color="#27B7FF"/>
    </linearGradient>
    <linearGradient id="paint27_linear_11273:6" x1="158.148" x2="443.265" y1="200.127" y2="200.127" gradientUnits="userSpaceOnUse">
      <stop offset=".01" stop-color="#F408AB"/>
      <stop offset="1" stop-color="#27B7FF"/>
    </linearGradient>
    <linearGradient id="paint28_linear_11273:6" x1="158.147" x2="443.271" y1="212.742" y2="212.742" gradientUnits="userSpaceOnUse">
      <stop offset=".01" stop-color="#F408AB"/>
      <stop offset="1" stop-color="#27B7FF"/>
    </linearGradient>
    <linearGradient id="paint29_linear_11273:6" x1="158.147" x2="443.269" y1="206.075" y2="206.075" gradientUnits="userSpaceOnUse">
      <stop offset=".01" stop-color="#F408AB"/>
      <stop offset="1" stop-color="#27B7FF"/>
    </linearGradient>
    <linearGradient id="paint30_linear_11273:6" x1="215.645" x2="244.516" y1="206.075" y2="206.075" gradientUnits="userSpaceOnUse">
      <stop offset=".01" stop-color="#F408AB"/>
      <stop offset="1" stop-color="#27B7FF"/>
    </linearGradient>
    <linearGradient id="paint31_linear_11273:6" x1="215.645" x2="244.516" y1="200.127" y2="200.127" gradientUnits="userSpaceOnUse">
      <stop offset=".01" stop-color="#F408AB"/>
      <stop offset="1" stop-color="#27B7FF"/>
    </linearGradient>
    <linearGradient id="paint32_linear_11273:6" x1="158.147" x2="443.271" y1="220.442" y2="220.442" gradientUnits="userSpaceOnUse">
      <stop offset=".01" stop-color="#F408AB"/>
      <stop offset="1" stop-color="#27B7FF"/>
    </linearGradient>
    <linearGradient id="paint33_linear_11273:6" x1="158.147" x2="443.268" y1="227.109" y2="227.109" gradientUnits="userSpaceOnUse">
      <stop offset=".01" stop-color="#F408AB"/>
      <stop offset="1" stop-color="#27B7FF"/>
    </linearGradient>
    <linearGradient id="paint34_linear_11273:6" x1="158.147" x2="443.271" y1="237.884" y2="237.884" gradientUnits="userSpaceOnUse">
      <stop offset=".01" stop-color="#F408AB"/>
      <stop offset="1" stop-color="#27B7FF"/>
    </linearGradient>
    <linearGradient id="paint35_linear_11273:6" x1="158.147" x2="443.269" y1="227.109" y2="227.109" gradientUnits="userSpaceOnUse">
      <stop offset=".01" stop-color="#F408AB"/>
      <stop offset="1" stop-color="#27B7FF"/>
    </linearGradient>
    <linearGradient id="paint36_linear_11273:6" x1="158.147" x2="443.271" y1="241.265" y2="241.265" gradientUnits="userSpaceOnUse">
      <stop offset=".01" stop-color="#F408AB"/>
      <stop offset="1" stop-color="#27B7FF"/>
    </linearGradient>
    <linearGradient id="paint37_linear_11273:6" x1="215.646" x2="244.516" y1="212.741" y2="212.741" gradientUnits="userSpaceOnUse">
      <stop offset=".01" stop-color="#F408AB"/>
      <stop offset="1" stop-color="#27B7FF"/>
    </linearGradient>
    <linearGradient id="paint38_linear_11273:6" x1="158.147" x2="443.271" y1="220.442" y2="220.442" gradientUnits="userSpaceOnUse">
      <stop offset=".01" stop-color="#F408AB"/>
      <stop offset="1" stop-color="#27B7FF"/>
    </linearGradient>
    <linearGradient id="paint39_linear_11273:6" x1="158.147" x2="443.27" y1="233.057" y2="233.057" gradientUnits="userSpaceOnUse">
      <stop offset=".01" stop-color="#F408AB"/>
      <stop offset="1" stop-color="#27B7FF"/>
    </linearGradient>
    <linearGradient id="paint40_linear_11273:6" x1="158.147" x2="443.272" y1="237.884" y2="237.884" gradientUnits="userSpaceOnUse">
      <stop offset=".01" stop-color="#F408AB"/>
      <stop offset="1" stop-color="#27B7FF"/>
    </linearGradient>
    <linearGradient id="paint41_linear_11273:6" x1="158.148" x2="443.266" y1="233.056" y2="233.056" gradientUnits="userSpaceOnUse">
      <stop offset=".01" stop-color="#F408AB"/>
      <stop offset="1" stop-color="#27B7FF"/>
    </linearGradient>
    <linearGradient id="paint42_linear_11273:6" x1="158.147" x2="443.272" y1="242.955" y2="242.955" gradientUnits="userSpaceOnUse">
      <stop offset=".01" stop-color="#F408AB"/>
      <stop offset="1" stop-color="#27B7FF"/>
    </linearGradient>
    <linearGradient id="paint43_linear_11273:6" x1="158.147" x2="443.272" y1="241.265" y2="241.265" gradientUnits="userSpaceOnUse">
      <stop offset=".01" stop-color="#F408AB"/>
      <stop offset="1" stop-color="#27B7FF"/>
    </linearGradient>
    <linearGradient id="paint44_linear_11273:6" x1="158.147" x2="443.271" y1="242.955" y2="242.955" gradientUnits="userSpaceOnUse">
      <stop offset=".01" stop-color="#F408AB"/>
      <stop offset="1" stop-color="#27B7FF"/>
    </linearGradient>
    <linearGradient id="paint45_linear_11273:6" x1="158.146" x2="443.271" y1="190.229" y2="190.229" gradientUnits="userSpaceOnUse">
      <stop offset=".01" stop-color="#F408AB"/>
      <stop offset="1" stop-color="#27B7FF"/>
    </linearGradient>
    <linearGradient id="paint46_linear_11273:6" x1="158.146" x2="443.269" y1="195.299" y2="195.299" gradientUnits="userSpaceOnUse">
      <stop offset=".01" stop-color="#F408AB"/>
      <stop offset="1" stop-color="#27B7FF"/>
    </linearGradient>
    <linearGradient id="paint47_linear_11273:6" x1="158.146" x2="443.269" y1="191.918" y2="191.918" gradientUnits="userSpaceOnUse">
      <stop offset=".01" stop-color="#F408AB"/>
      <stop offset="1" stop-color="#27B7FF"/>
    </linearGradient>
    <linearGradient id="paint48_linear_11273:6" x1="158.147" x2="443.266" y1="200.127" y2="200.127" gradientUnits="userSpaceOnUse">
      <stop offset=".01" stop-color="#F408AB"/>
      <stop offset="1" stop-color="#27B7FF"/>
    </linearGradient>
    <linearGradient id="paint49_linear_11273:6" x1="158.147" x2="443.266" y1="212.741" y2="212.741" gradientUnits="userSpaceOnUse">
      <stop offset=".01" stop-color="#F408AB"/>
      <stop offset="1" stop-color="#27B7FF"/>
    </linearGradient>
    <linearGradient id="paint50_linear_11273:6" x1="158.146" x2="443.271" y1="206.075" y2="206.075" gradientUnits="userSpaceOnUse">
      <stop offset=".01" stop-color="#F408AB"/>
      <stop offset="1" stop-color="#27B7FF"/>
    </linearGradient>
    <linearGradient id="paint51_linear_11273:6" x1="158.148" x2="443.266" y1="220.442" y2="220.442" gradientUnits="userSpaceOnUse">
      <stop offset=".01" stop-color="#F408AB"/>
      <stop offset="1" stop-color="#27B7FF"/>
    </linearGradient>
    <linearGradient id="paint52_linear_11273:6" x1="158.146" x2="443.271" y1="227.109" y2="227.109" gradientUnits="userSpaceOnUse">
      <stop offset=".01" stop-color="#F408AB"/>
      <stop offset="1" stop-color="#27B7FF"/>
    </linearGradient>
    <linearGradient id="paint53_linear_11273:6" x1="158.148" x2="443.267" y1="237.884" y2="237.884" gradientUnits="userSpaceOnUse">
      <stop offset=".01" stop-color="#F408AB"/>
      <stop offset="1" stop-color="#27B7FF"/>
    </linearGradient>
    <linearGradient id="paint54_linear_11273:6" x1="158.147" x2="443.267" y1="227.109" y2="227.109" gradientUnits="userSpaceOnUse">
      <stop offset=".01" stop-color="#F408AB"/>
      <stop offset="1" stop-color="#27B7FF"/>
    </linearGradient>
    <linearGradient id="paint55_linear_11273:6" x1="158.145" x2="443.27" y1="241.265" y2="241.265" gradientUnits="userSpaceOnUse">
      <stop offset=".01" stop-color="#F408AB"/>
      <stop offset="1" stop-color="#27B7FF"/>
    </linearGradient>
    <linearGradient id="paint56_linear_11273:6" x1="158.147" x2="443.269" y1="220.442" y2="220.442" gradientUnits="userSpaceOnUse">
      <stop offset=".01" stop-color="#F408AB"/>
      <stop offset="1" stop-color="#27B7FF"/>
    </linearGradient>
    <linearGradient id="paint57_linear_11273:6" x1="158.146" x2="443.269" y1="233.057" y2="233.057" gradientUnits="userSpaceOnUse">
      <stop offset=".01" stop-color="#F408AB"/>
      <stop offset="1" stop-color="#27B7FF"/>
    </linearGradient>
    <linearGradient id="paint58_linear_11273:6" x1="158.146" x2="443.269" y1="237.884" y2="237.884" gradientUnits="userSpaceOnUse">
      <stop offset=".01" stop-color="#F408AB"/>
      <stop offset="1" stop-color="#27B7FF"/>
    </linearGradient>
    <linearGradient id="paint59_linear_11273:6" x1="158.148" x2="443.266" y1="233.056" y2="233.056" gradientUnits="userSpaceOnUse">
      <stop offset=".01" stop-color="#F408AB"/>
      <stop offset="1" stop-color="#27B7FF"/>
    </linearGradient>
    <linearGradient id="paint60_linear_11273:6" x1="158.146" x2="443.271" y1="242.955" y2="242.955" gradientUnits="userSpaceOnUse">
      <stop offset=".01" stop-color="#F408AB"/>
      <stop offset="1" stop-color="#27B7FF"/>
    </linearGradient>
    <linearGradient id="paint61_linear_11273:6" x1="158.146" x2="443.269" y1="241.265" y2="241.265" gradientUnits="userSpaceOnUse">
      <stop offset=".01" stop-color="#F408AB"/>
      <stop offset="1" stop-color="#27B7FF"/>
    </linearGradient>
    <linearGradient id="paint62_linear_11273:6" x1="158.145" x2="443.27" y1="242.955" y2="242.955" gradientUnits="userSpaceOnUse">
      <stop offset=".01" stop-color="#F408AB"/>
      <stop offset="1" stop-color="#27B7FF"/>
    </linearGradient>
    <linearGradient id="paint63_linear_11273:6" x1="158.149" x2="443.268" y1="190.229" y2="190.229" gradientUnits="userSpaceOnUse">
      <stop offset=".01" stop-color="#F408AB"/>
      <stop offset="1" stop-color="#27B7FF"/>
    </linearGradient>
    <linearGradient id="paint64_linear_11273:6" x1="158.149" x2="443.268" y1="195.299" y2="195.299" gradientUnits="userSpaceOnUse">
      <stop offset=".01" stop-color="#F408AB"/>
      <stop offset="1" stop-color="#27B7FF"/>
    </linearGradient>
    <linearGradient id="paint65_linear_11273:6" x1="158.149" x2="443.267" y1="191.918" y2="191.918" gradientUnits="userSpaceOnUse">
      <stop offset=".01" stop-color="#F408AB"/>
      <stop offset="1" stop-color="#27B7FF"/>
    </linearGradient>
    <linearGradient id="paint66_linear_11273:6" x1="158.146" x2="443.269" y1="200.127" y2="200.127" gradientUnits="userSpaceOnUse">
      <stop offset=".01" stop-color="#F408AB"/>
      <stop offset="1" stop-color="#27B7FF"/>
    </linearGradient>
    <linearGradient id="paint67_linear_11273:6" x1="158.146" x2="443.269" y1="212.741" y2="212.741" gradientUnits="userSpaceOnUse">
      <stop offset=".01" stop-color="#F408AB"/>
      <stop offset="1" stop-color="#27B7FF"/>
    </linearGradient>
    <linearGradient id="paint68_linear_11273:6" x1="158.148" x2="443.268" y1="206.075" y2="206.075" gradientUnits="userSpaceOnUse">
      <stop offset=".01" stop-color="#F408AB"/>
      <stop offset="1" stop-color="#27B7FF"/>
    </linearGradient>
    <linearGradient id="paint69_linear_11273:6" x1="158.146" x2="443.269" y1="220.442" y2="220.442" gradientUnits="userSpaceOnUse">
      <stop offset=".01" stop-color="#F408AB"/>
      <stop offset="1" stop-color="#27B7FF"/>
    </linearGradient>
    <linearGradient id="paint70_linear_11273:6" x1="158.148" x2="443.268" y1="227.109" y2="227.109" gradientUnits="userSpaceOnUse">
      <stop offset=".01" stop-color="#F408AB"/>
      <stop offset="1" stop-color="#27B7FF"/>
    </linearGradient>
    <linearGradient id="paint71_linear_11273:6" x1="158.148" x2="443.269" y1="237.884" y2="237.884" gradientUnits="userSpaceOnUse">
      <stop offset=".01" stop-color="#F408AB"/>
      <stop offset="1" stop-color="#27B7FF"/>
    </linearGradient>
    <linearGradient id="paint72_linear_11273:6" x1="158.147" x2="443.269" y1="233.056" y2="233.056" gradientUnits="userSpaceOnUse">
      <stop offset=".01" stop-color="#F408AB"/>
      <stop offset="1" stop-color="#27B7FF"/>
    </linearGradient>
    <linearGradient id="paint73_linear_11273:6" x1="158.149" x2="443.268" y1="242.955" y2="242.955" gradientUnits="userSpaceOnUse">
      <stop offset=".01" stop-color="#F408AB"/>
      <stop offset="1" stop-color="#27B7FF"/>
    </linearGradient>
    <linearGradient id="paint74_linear_11273:6" x1="158.149" x2="443.267" y1="241.265" y2="241.265" gradientUnits="userSpaceOnUse">
      <stop offset=".01" stop-color="#F408AB"/>
      <stop offset="1" stop-color="#27B7FF"/>
    </linearGradient>
    <linearGradient id="paint75_linear_11273:6" x1="63.717" x2="34.325" y1="80.719" y2="51.327" gradientUnits="userSpaceOnUse">
      <stop stop-color="#00EAD1"/>
      <stop offset=".129" stop-color="#00E0D1"/>
      <stop offset=".352" stop-color="#00C4CF"/>
      <stop offset=".641" stop-color="#0097CE"/>
      <stop offset=".982" stop-color="#0058CB"/>
      <stop offset="1" stop-color="#0055CB"/>
    </linearGradient>
    <linearGradient id="paint76_linear_11273:6" x1="92.867" x2="64.78" y1="82.858" y2="54.772" gradientUnits="userSpaceOnUse">
      <stop stop-color="#00EAD1"/>
      <stop offset=".129" stop-color="#00E0D1"/>
      <stop offset=".352" stop-color="#00C4CF"/>
      <stop offset=".641" stop-color="#0097CE"/>
      <stop offset=".982" stop-color="#0058CB"/>
      <stop offset="1" stop-color="#0055CB"/>
    </linearGradient>
    <linearGradient id="paint77_linear_11273:6" x1="131.354" x2="85.173" y1="62.407" y2="16.226" gradientUnits="userSpaceOnUse">
      <stop stop-color="#00EAD1"/>
      <stop offset=".129" stop-color="#00E0D1"/>
      <stop offset=".352" stop-color="#00C4CF"/>
      <stop offset=".641" stop-color="#0097CE"/>
      <stop offset=".982" stop-color="#0058CB"/>
      <stop offset="1" stop-color="#0055CB"/>
    </linearGradient>
    <linearGradient id="paint78_linear_11273:6" x1="114.074" x2="67.893" y1="75.208" y2="29.027" gradientUnits="userSpaceOnUse">
      <stop stop-color="#00EAD1"/>
      <stop offset=".129" stop-color="#00E0D1"/>
      <stop offset=".352" stop-color="#00C4CF"/>
      <stop offset=".641" stop-color="#0097CE"/>
      <stop offset=".982" stop-color="#0058CB"/>
      <stop offset="1" stop-color="#0055CB"/>
    </linearGradient>
    <linearGradient id="paint79_linear_11273:6" x1="45.006" x2="45.006" y1="200.737" y2="163.196" gradientUnits="userSpaceOnUse">
      <stop offset=".01" stop-color="#fff" stop-opacity="0"/>
      <stop offset="1" stop-color="#fff"/>
    </linearGradient>
    <linearGradient id="paint80_linear_11273:6" x1="-.571" x2="70.871" y1="169.909" y2="169.909" gradientUnits="userSpaceOnUse">
      <stop stop-color="#00EAD1"/>
      <stop offset=".129" stop-color="#00E0D1"/>
      <stop offset=".352" stop-color="#00C4CF"/>
      <stop offset=".641" stop-color="#0097CE"/>
      <stop offset=".982" stop-color="#0058CB"/>
      <stop offset="1" stop-color="#0055CB"/>
    </linearGradient>
    <radialGradient id="paint0_radial_11273:6" cx="0" cy="0" r="1" gradientTransform="rotate(-90 177.12 -134.505) scale(30.6043)" gradientUnits="userSpaceOnUse">
      <stop stop-color="#06F"/>
      <stop offset=".276" stop-color="#06F"/>
      <stop offset=".641" stop-color="#0097CE"/>
      <stop offset="1" stop-color="#0058CB"/>
    </radialGradient>
    <radialGradient id="paint2_radial_11273:6" cx="0" cy="0" r="1" gradientTransform="matrix(0 -30.6044 30.6044 0 315.76 42.615)" gradientUnits="userSpaceOnUse">
      <stop stop-color="#06F"/>
      <stop offset=".307" stop-color="#06F"/>
      <stop offset=".651" stop-color="#0097CE"/>
      <stop offset=".982" stop-color="#0058CB"/>
    </radialGradient>
    <radialGradient id="paint4_radial_11273:6" cx="0" cy="0" r="1" gradientTransform="rotate(-90 186.012 -143.397) scale(30.6042)" gradientUnits="userSpaceOnUse">
      <stop stop-color="#06F"/>
      <stop offset=".339" stop-color="#06F"/>
      <stop offset=".693" stop-color="#0097CE"/>
      <stop offset=".982" stop-color="#0058CB"/>
    </radialGradient>
    <radialGradient id="paint5_radial_11273:6" cx="0" cy="0" r="1" gradientTransform="translate(332.717 52.851) scale(14.8897)" gradientUnits="userSpaceOnUse">
      <stop offset="0"/>
      <stop offset=".089" stop-color="#1D1D1D"/>
      <stop offset=".346" stop-color="#6C6C6C"/>
      <stop offset=".575" stop-color="#ABABAB"/>
      <stop offset=".767" stop-color="#D9D9D9"/>
      <stop offset=".914" stop-color="#F5F5F5"/>
      <stop offset="1" stop-color="#fff"/>
    </radialGradient>
  </defs>
</svg>
