<svg width="86" height="47" viewBox="0 0 86 47" fill="none" xmlns="http://www.w3.org/2000/svg">
<path d="M18.5567 13.0143C18.6294 13.3332 18.3921 14.3935 17.8446 16.1954C17.7351 16.5558 17.141 18.4163 16.0625 21.7768C15.2804 24.2311 14.7567 25.9797 14.4913 27.0225C14.1784 28.1719 13.8885 29.5797 13.6215 31.2458C13.2937 33.381 12.966 35.5161 12.6382 37.6512C12.4772 38.3109 12.2358 38.881 11.9142 39.3616C11.6101 39.8143 11.2758 40.0822 10.9114 40.1653C10.6154 40.2328 10.3285 40.1305 10.0508 39.8584C9.79596 39.5811 9.58802 39.0894 9.42705 38.3834C8.83508 35.7871 8.45468 32.9629 8.28586 29.9108C8.13461 26.8307 8.01494 23.7314 7.92682 20.613C6.65886 24.0886 5.58849 27.3274 4.71571 30.3295C3.80576 33.4839 3.1931 36.1032 2.87774 38.1876C2.7758 39.0015 2.67127 39.804 2.56415 40.5951C2.33833 41.9164 1.94074 42.6419 1.37138 42.7717C0.945864 42.7969 0.675987 42.5589 0.561747 42.0579C0.380002 41.2608 0.53012 39.7651 1.0121 37.5708C1.20513 36.7362 1.39816 35.9016 1.59119 35.0669C2.27258 32.2762 3.27044 28.982 4.58477 25.1844C5.95903 21.2294 7.07013 18.4844 7.91805 16.9494C8.37199 16.1032 8.81531 15.6307 9.24802 15.5321C9.72628 15.423 10.0225 15.619 10.1368 16.1201C10.1835 16.325 10.1795 16.5176 10.1247 16.6978C9.64796 18.9148 9.57784 22.285 9.91438 26.8083C10.1986 30.5768 10.59 33.5542 11.0885 35.7405C11.1968 35.1648 11.4672 33.8813 11.8996 31.89C12.2681 30.2487 12.5359 28.9538 12.7029 28.0053C13.0662 26.3412 13.3903 24.9256 13.6753 23.7586C14.017 22.315 14.4114 20.7876 14.8586 19.1763C15.3286 17.5597 15.7929 16.0763 16.2517 14.7258C16.7052 13.3526 17.2395 12.5959 17.8544 12.4557C18.2136 12.3498 18.4477 12.5361 18.5567 13.0143Z" fill="white"/>
<path d="M24.2849 18.0692C24.4095 18.6158 24.2546 19.25 23.8203 19.972C23.4035 20.666 22.9902 21.0597 22.5802 21.1532C22.102 21.2622 21.7979 21.0321 21.6681 20.4627C21.5487 19.9389 21.6947 19.3186 22.1063 18.6018C22.5179 17.8851 22.9286 17.48 23.3386 17.3865C23.8396 17.2723 24.155 17.4998 24.2849 18.0692ZM22.2306 25.2938C22.3085 25.6354 22.2409 26.0222 22.0279 26.4541C21.5792 27.3231 21.1014 28.9054 20.5947 31.2012C20.0827 33.4742 19.8467 35.0134 19.8866 35.8189C19.9265 36.6243 19.7022 37.0588 19.2135 37.1223C19.0313 37.1639 18.8433 37.075 18.6496 36.8556C18.4558 36.6362 18.3252 36.3785 18.2577 36.0825C17.998 34.9437 18.1635 33.2529 18.7542 31.0099C19.2529 29.0993 19.8967 27.2994 20.6855 25.6102C20.7682 25.4476 20.8737 25.2798 21.002 25.1068C21.153 24.9286 21.331 24.8161 21.536 24.7694C21.9108 24.7318 22.1423 24.9067 22.2306 25.2938Z" fill="white"/>
<path d="M33.9275 26.2206C34.1093 27.0177 33.768 28.3054 32.9037 30.0837C31.8915 32.1593 30.5431 33.9162 28.8586 35.3544C28.4685 37.2163 28.0757 38.8033 27.68 40.1153C27.1078 42.0187 26.5166 43.4712 25.9064 44.4729C25.1204 45.7541 24.2264 46.509 23.2243 46.7375C22.1084 46.992 21.3868 46.4018 21.0597 44.967C20.7949 43.8055 21.2111 42.321 22.3083 40.5136C23.4056 38.7061 25.0035 36.9402 27.102 35.2159C27.3418 34.5862 27.4988 34.1192 27.5731 33.8147C27.697 33.3073 27.72 32.8828 27.6421 32.5412C27.2657 33.202 26.8695 33.7236 26.4536 34.1059C26.0325 34.4655 25.6055 34.6946 25.1728 34.7933C24.2618 35.001 23.6817 34.5582 23.4325 33.4651C23.1053 32.0303 23.546 29.9173 24.7544 27.1262C26.0455 24.1724 27.4426 22.5242 28.9457 22.1815C29.4923 22.0569 29.9639 22.129 30.3606 22.3979C30.7574 22.6668 31.0129 23.0518 31.1271 23.5528C31.205 23.8945 31.2207 24.2263 31.1744 24.5483C31.1456 24.8424 31.0423 25.1774 30.8645 25.5533C31.2516 25.4651 31.4458 25.5286 31.447 25.744C30.9779 27.0488 30.5589 28.2584 30.19 29.3727C29.7612 30.6445 29.5772 31.7286 29.6379 32.6252C30.5792 31.5001 31.358 30.2924 31.9742 29.0019C32.4777 27.9527 32.9786 26.8921 33.4769 25.8202C33.7046 25.7683 33.8548 25.9017 33.9275 26.2206ZM29.3435 24.7142C29.2604 24.3498 29.0366 24.2092 28.6723 24.2923C28.0346 24.4377 27.2158 25.5228 26.2161 27.5476C25.1511 29.7071 24.7381 31.3106 24.977 32.3582C25.0964 32.882 25.3611 33.0972 25.771 33.0037C26.181 32.9103 26.5907 32.5533 27.0003 31.9328C27.4854 31.2233 27.9671 30.1311 28.4454 28.6565C28.0427 28.6764 27.8284 28.6295 27.8024 28.5156C28.0733 28.0226 28.3592 27.4902 28.6601 26.9185C28.9786 26.3188 29.1982 25.7057 29.3189 25.0792L29.3435 24.7142ZM26.7992 37.5131C26.0021 37.6948 25.0647 38.6273 23.987 40.3105C22.8918 42.0217 22.435 43.2758 22.6168 44.0729C22.6583 44.2551 22.7744 44.3964 22.965 44.4967C23.1555 44.597 23.3533 44.6237 23.5583 44.577C24.1732 44.4368 24.7726 43.5454 25.3564 41.903C25.8347 40.4283 26.3157 38.965 26.7992 37.5131Z" fill="white"/>
<path d="M44.6985 24.0882C44.9114 25.0219 44.5882 26.3893 43.7291 28.1904C42.7697 30.1821 41.6751 31.3181 40.4453 31.5985C40.0353 31.692 39.6967 31.6255 39.4294 31.3989C39.1797 31.1444 39.0004 30.778 38.8913 30.2997C38.7096 29.5026 38.7482 28.4636 39.0072 27.1827C39.2661 25.9018 39.6794 24.5617 40.2468 23.1625C38.0951 25.8094 36.7656 28.7 36.2584 31.8344C36.0718 32.9072 35.7393 33.4981 35.2611 33.6071C34.76 33.7214 34.4394 33.471 34.2992 32.8561C34.1798 32.3323 34.3073 31.1053 34.6818 29.1752C34.9975 27.6177 35.333 26.1996 35.6883 24.9207C36.6654 21.5354 37.6125 17.546 38.5298 12.9525C38.9538 10.8194 39.5074 9.6749 40.1907 9.51912C40.8056 9.37891 41.1831 9.61626 41.3233 10.2312C41.4168 10.6411 41.1572 11.8144 40.5446 13.7509C39.9548 15.6823 39.3535 17.6162 38.7409 19.5528C38.0116 21.9232 37.5826 23.6143 37.4539 24.6259C38.2802 23.3115 39.1067 22.2605 39.9334 21.4731C40.6215 20.8131 41.216 20.4259 41.7171 20.3117C42.2637 20.1871 42.5889 20.3525 42.6927 20.808C42.7239 20.9446 42.7137 21.1626 42.6621 21.4618C42.006 23.3125 41.5182 24.6935 41.199 25.6048C40.6255 27.2929 40.3907 28.3646 40.4946 28.8201C40.5673 29.1389 40.7516 29.2646 41.0477 29.1971C41.526 29.0881 41.9207 28.7704 42.232 28.2443C42.2672 28.1883 42.6754 27.089 43.4566 24.9463C43.7367 24.2835 44.0362 23.9157 44.3551 23.843C44.5373 23.8015 44.6517 23.8832 44.6985 24.0882Z" fill="white"/>
<path d="M54.7544 14.7516C54.9857 15.3457 54.5931 15.8305 53.5767 16.2061C51.8118 16.872 50.6391 17.4029 50.0586 17.7988C49.3428 20.3339 48.8469 22.5194 48.5707 24.3553C48.3357 25.8463 48.2909 26.9107 48.4363 27.5484C48.5505 28.0494 48.8012 28.2558 49.1884 28.1675C49.6438 28.0637 50.1503 27.5529 50.7077 26.6352C51.2827 25.6895 51.6977 24.6725 51.9527 23.5841C52.0414 23.1327 52.2224 22.8758 52.4957 22.8135C52.8497 22.6848 53.0786 22.8482 53.1825 23.3037C53.4006 24.2603 53.0277 25.5671 52.0639 27.2244C51.1177 28.8537 50.1208 29.7878 49.0732 30.0266C48.5038 30.1564 47.9648 30.0517 47.4562 29.7125C46.9476 29.3732 46.6103 28.8392 46.4441 28.1104C46.1948 27.0173 46.2637 25.4802 46.6505 23.4993C46.9415 22.0434 47.3313 20.6009 47.8201 19.1717C47.3833 19.463 47.0397 19.6372 46.7892 19.6943C46.2654 19.8137 45.9412 19.6001 45.8165 19.0535C45.7179 18.6208 45.9692 18.2521 46.5706 17.9473C47.1947 17.6372 47.8302 17.3246 48.477 17.0094C49.1951 14.9051 49.7662 13.4692 50.1901 12.7017C50.6089 11.9114 51.046 11.4643 51.5015 11.3605C51.8327 11.237 52.0503 11.403 52.1541 11.8585C52.2372 12.2229 52.1149 12.7899 51.7873 13.5594C51.3045 14.6996 51.0296 15.3852 50.9625 15.6162C51.4779 15.3549 51.953 15.1268 52.3877 14.9318C52.8224 14.7369 53.2333 14.5953 53.6205 14.507C54.3037 14.3512 54.6817 14.4328 54.7544 14.7516Z" fill="white"/>
<path d="M64.5434 4.28994C64.9485 6.06634 64.2433 8.91045 62.4279 12.8223C60.7904 16.3581 58.9511 19.377 56.9101 21.8788C56.5448 23.6392 56.4245 24.7927 56.5491 25.3392C56.6426 25.7492 56.7918 25.9308 56.9968 25.884C57.3839 25.7958 57.8598 25.256 58.4244 24.2648C59.0066 23.2456 59.3311 22.357 59.3979 21.5991C59.499 21.0969 59.6976 20.812 59.9937 20.7445C60.1531 20.7081 60.3053 20.7453 60.4503 20.856C60.6129 20.9387 60.7202 21.0939 60.7721 21.3217C60.9591 22.1416 60.5075 23.4185 59.4174 25.1524C58.3274 26.8864 57.4066 27.839 56.655 28.0104C55.8124 28.2025 55.2638 27.7406 55.0094 26.6247C54.9419 26.3286 54.9131 25.9399 54.9232 25.4584C55.1811 21.2308 56.0566 16.8745 57.5495 12.3893C58.9454 8.21373 60.3763 5.34789 61.8424 3.79175C62.2935 3.35348 62.6898 3.0954 63.0314 3.01751C63.3958 2.93442 63.7143 3.01755 63.9867 3.26688C64.254 3.49344 64.4396 3.83446 64.5434 4.28994ZM63.0331 5.389C62.9604 5.07016 62.7988 4.9393 62.5483 4.99642C61.9789 5.12624 61.0886 6.79068 59.8774 9.98976C58.661 13.1661 57.9537 15.843 57.7554 18.0205C59.1199 16.4396 60.4058 14.1458 61.613 11.1394C62.7778 8.26231 63.2512 6.34552 63.0331 5.389Z" fill="white"/>
<path d="M68.121 8.07423C68.2456 8.62082 68.0907 9.25509 67.6564 9.97704C67.2396 10.671 66.8263 11.0647 66.4163 11.1582C65.9381 11.2673 65.634 11.0371 65.5042 10.4677C65.3848 9.94394 65.5308 9.32365 65.9424 8.6069C66.354 7.89014 66.7648 7.48503 67.1747 7.39156C67.6757 7.27732 67.9911 7.50488 68.121 8.07423ZM66.0667 15.2989C66.1446 15.6405 66.077 16.0272 65.864 16.4591C65.4153 17.3281 64.9376 18.9105 64.4308 21.2062C63.9188 23.4792 63.6828 25.0184 63.7227 25.8239C63.7626 26.6294 63.5383 27.0639 63.0496 27.1274C62.8674 27.1689 62.6794 27.08 62.4857 26.8607C62.2919 26.6413 62.1613 26.3836 62.0938 26.0875C61.8341 24.9488 61.9996 23.2579 62.5903 21.0149C63.0891 19.1043 63.7328 17.3044 64.5216 15.6152C64.6043 15.4526 64.7098 15.2848 64.8381 15.1118C64.9891 14.9336 65.1671 14.8212 65.3721 14.7744C65.7469 14.7369 65.9784 14.9117 66.0667 15.2989Z" fill="white"/>
<path d="M75.9966 1.06761C76.0745 1.40923 75.9552 1.83174 75.6387 2.33514C74.8651 3.56569 74.0314 5.37298 73.1374 7.75701C72.2435 10.141 71.54 12.3619 71.0268 14.4195C71.5567 14.0112 72.0627 13.6562 72.545 13.3546C73.3025 12.8944 73.9888 12.5941 74.6037 12.4539C75.1275 12.3345 75.6001 12.3585 76.0217 12.5259C76.4659 12.6882 76.7524 12.9463 76.881 13.3003C76.9278 13.5053 76.8265 13.744 76.5771 14.0165C76.3506 14.2837 76.112 14.4459 75.8615 14.5031C75.7704 14.5238 75.4572 14.4635 74.9218 14.322C74.6401 14.2425 74.3626 14.2339 74.0894 14.2962C73.6566 14.3949 72.9984 14.7127 72.1145 15.2496C71.2255 15.7638 70.5824 16.3057 70.1853 16.8754C71.0674 16.9618 71.8086 17.4277 72.4086 18.2732C72.904 18.9748 73.2712 19.8494 73.51 20.897C74.533 25.3836 74.4139 29.0644 73.1528 31.9394C72.1893 34.1237 70.9561 35.3871 69.453 35.7299C68.9064 35.8545 68.3746 35.6763 67.8576 35.1952C67.3231 34.7421 66.9597 34.0942 66.7676 33.2515C66.6066 32.5455 66.5176 31.7872 66.5004 30.9765C66.4885 30.1886 66.5231 29.3422 66.6043 28.4372C66.7574 26.7971 67.1037 24.5858 67.6433 21.8034C67.8651 20.6747 67.9764 19.9546 67.9772 19.6429C67.8913 19.6865 67.78 19.7238 67.6434 19.755C67.279 19.8381 67.0682 19.7543 67.0111 19.5038C66.9436 19.2078 67.0779 18.7459 67.4139 18.1182C67.75 17.4906 68.2289 16.8064 68.8506 16.0657C69.4517 13.8682 69.9076 12.2429 70.2186 11.1897C70.7309 9.44374 71.279 7.7495 71.8628 6.10701C72.4642 4.43655 73.0368 3.06016 73.5807 1.97783C73.7761 1.5739 74.015 1.25588 74.2975 1.02376C74.5748 0.768867 74.8501 0.610263 75.1234 0.547951C75.6017 0.438904 75.8927 0.612125 75.9966 1.06761ZM72.0351 21.5208C71.8429 20.6782 71.5795 19.9955 71.2447 19.4729C70.9099 18.9503 70.4992 18.6726 70.0126 18.6398C69.6585 20.1341 69.2362 22.5902 68.7458 26.0083C68.2781 29.4212 68.1144 31.4351 68.2546 32.05C68.3688 32.551 68.5456 32.906 68.7849 33.115C69.0294 33.3468 69.2655 33.4367 69.4933 33.3847C70.427 33.1718 71.2182 31.9133 71.8668 29.6092C72.6125 26.9954 72.6686 24.2993 72.0351 21.5208Z" fill="white"/>
<path d="M85.3683 16.0729C85.5501 16.87 84.9629 18.13 83.6067 19.8527C82.1575 21.6925 80.7268 22.7734 79.3148 23.0954C78.6088 23.2563 77.9228 23.1372 77.2568 22.738C76.6084 22.3109 76.1959 21.7102 76.0193 20.9358C75.796 19.9565 75.848 18.8186 76.1754 17.5221C76.4479 16.4058 76.8329 15.4675 77.3304 14.7072C78.0233 13.543 78.6672 12.6894 79.2622 12.1465C79.8519 11.5807 80.3745 11.2459 80.83 11.1421C81.2627 11.0434 81.6469 11.0996 81.9825 11.3106C82.3181 11.5215 82.53 11.8206 82.6183 12.2078C82.7845 12.9366 82.5972 13.9016 82.0566 15.103C81.6638 16.0072 81.1617 16.8524 80.5504 17.6387C80.2866 18.0582 79.8723 18.5 79.3073 18.9643C78.9037 19.2959 78.4494 19.6151 77.9444 19.9219C78.069 20.4685 78.2764 20.8525 78.5664 21.0738C78.874 21.2672 79.2442 21.3146 79.6769 21.2159C80.3829 21.055 81.1705 20.516 82.0395 19.5991C82.9314 18.677 83.6668 17.6468 84.2458 16.5086C84.5115 15.9928 84.7355 15.7141 84.9177 15.6726C85.1454 15.6206 85.2956 15.7541 85.3683 16.0729ZM81.1283 13.5538C81.066 13.2805 80.893 13.1522 80.6093 13.169C80.245 13.2521 79.8694 13.6012 79.4826 14.2165C79.1785 14.6692 78.8512 15.2828 78.5008 16.0575C78.1679 16.8043 77.9308 17.4453 77.7893 17.9807C78.5408 17.8093 79.319 17.1767 80.1237 16.0828C80.9285 14.9889 81.2633 14.1459 81.1283 13.5538Z" fill="white"/>
</svg>
